<svg width="78" height="70" viewBox="0 0 78 70" fill="none" xmlns="http://www.w3.org/2000/svg"><g filter="url(#filter0_d_13742_6269)"><mask id="path-1-outside-1_13742_6269" maskUnits="userSpaceOnUse" x="4" y="0" width="70" height="62" fill="black"><rect fill="white" x="4" width="70" height="62"></rect><path fill-rule="evenodd" clip-rule="evenodd" d="M25.2936 1C25.4829 3.87734 22.9192 8.89922 17.9574 11.1777C17.7589 9.79273 20.0025 3.13039 25.2936 1ZM17.2854 1.92133C18.7622 4.39807 18.7622 10.0364 15.379 14.3215C14.5724 13.1782 13.5415 6.22422 17.2854 1.92133ZM23.6165 10.0339C22.3503 12.6108 19.9428 16.8425 14.8409 18.4331C14.9607 17.0391 17.9807 10.9127 23.6165 10.0339ZM12.8377 10.6225C13.5026 12.8162 14.403 16.5975 12.2919 20.305C11.6023 19.4261 10.0272 14.2055 12.8377 10.6225ZM7.02277 14.0879C9.54722 16.0634 12.6655 19.5125 11.5409 25.3633C10.2922 24.7319 5.73494 19.6441 7.02277 14.0879ZM17.312 18.1449C18.0008 21.2755 17.6628 25.99 13.0701 29.7857C12.5092 28.5039 12.7811 21.6096 17.312 18.1449ZM6.81633 22.6935C9.67691 24.1403 13.115 27.3842 13.1501 33.342C11.8024 32.9656 6.63408 28.3941 6.81633 22.6935ZM14.502 30.1038C16.1118 32.0712 17.5634 35.5271 15.676 39.8585C14.8197 39.1529 13.1383 33.2336 14.502 30.1038ZM18.5377 37.09C20.4925 38.0673 26.2065 42.5028 26.2065 49.4943C24.6276 49.0433 18.5377 42.142 18.5377 37.09ZM5 30.4837C8.16673 30.9819 12.4351 33.0129 14.2988 38.6719C12.9007 38.7276 6.57785 35.9647 5 30.4837ZM9.51852 38.7888C11.7039 38.7669 18.8122 40.1076 22.0019 46.3292C20.3911 46.648 11.8233 43.2845 9.51852 38.7888ZM9.51852 46.9052C11.5441 46.0847 18.6497 44.7298 23.8961 49.3516C22.5139 50.238 13.3094 50.2448 9.51852 46.9052ZM37.946 53.788C36.9687 51.6079 33.3448 46.7965 26.6685 44.9922C27.272 47.406 31.3201 51.6495 36.1567 53.307C33.2996 52.8942 28.3767 53.1279 23.6153 56.2761C26.075 57.5491 33.0578 57.1203 37.5729 53.7098C37.6969 53.7378 37.8213 53.7639 37.946 53.788ZM38.8657 54.5913L43.3743 58.3482L44.6907 59.4451L44.9326 59.6467L44.8762 59.695L43.3925 60.9667L43.3539 60.9998L43.2269 60.8286L42.1592 59.3897L38.7323 54.7712L35.3054 59.3897L34.2376 60.8286L34.1107 60.9998L34.072 60.9667L32.5883 59.695L32.5319 59.6467L32.7738 59.4451L34.0902 58.3482L38.5988 54.5913L38.1665 54.0086L38.7323 54.4801L39.298 54.0086L38.8657 54.5913ZM30.1562 51.5463C28.545 50.7133 23.2374 49.4031 19.1281 51.9712C20.8095 53.259 26.3219 53.5472 30.1562 51.5463ZM58.9152 37.09C56.9604 38.0673 51.2465 42.5028 51.2465 49.4943C52.8253 49.0433 58.9152 42.142 58.9152 37.09ZM63.1824 30.6132C61.68 32.4493 60.3253 35.6747 62.0867 39.7172C62.886 39.0587 64.4552 33.5342 63.1824 30.6132ZM72.4515 30.4837C69.2848 30.9819 65.0164 33.0129 63.1527 38.6719C64.5508 38.7276 70.8736 35.9647 72.4515 30.4837ZM70.6352 22.6935C67.7746 24.1403 64.3365 27.3842 64.3014 33.342C65.6491 32.9656 70.8174 28.3941 70.6352 22.6935ZM60.1525 18.1449C59.4638 21.2755 59.8017 25.99 64.3944 29.7857C64.9553 28.5039 64.6834 21.6096 60.1525 18.1449ZM70.4215 14.0879C67.897 16.0634 64.7787 19.5125 65.9034 25.3633C67.1521 24.7319 71.7093 19.6441 70.4215 14.0879ZM64.6298 10.6746C63.9674 12.8599 63.0705 16.6266 65.1735 20.3199C65.8604 19.4444 67.4295 14.2438 64.6298 10.6746ZM53.8552 10.0339C55.1214 12.6108 57.529 16.8425 62.6309 18.4331C62.511 17.0391 59.4911 10.9127 53.8552 10.0339ZM60.1646 1.92133C58.6878 4.39807 58.6878 10.0364 62.0711 14.3215C62.8776 13.1782 63.9086 6.22422 60.1646 1.92133ZM52.1651 1C51.9759 3.87734 54.5396 8.89922 59.5013 11.1777C59.6999 9.79273 57.4562 3.13039 52.1651 1ZM67.9359 38.7888C65.7505 38.7669 58.6422 40.1076 55.4525 46.3292C57.0633 46.648 65.6311 43.2845 67.9359 38.7888ZM67.9359 46.9023C65.9103 46.0818 58.8047 44.7269 53.5583 49.3487C54.9405 50.2351 64.1449 50.2419 67.9359 46.9023ZM39.5243 53.788C40.5016 51.6079 44.1255 46.7965 50.8018 44.9922C50.1983 47.4061 46.1496 51.6501 41.3125 53.3074C44.1693 52.894 49.0937 53.127 53.8564 56.2761C51.3967 57.5491 44.4136 57.1203 39.8986 53.7096C39.7741 53.7376 39.6493 53.7638 39.5243 53.788ZM46.4712 51.6584C47.9755 50.8806 52.9311 49.6574 56.7678 52.0552C55.198 53.2575 50.0512 53.5266 46.4712 51.6584Z"></path></mask><path d="M25.2936 1L25.7926 0.967191L25.7473 0.278346L25.1069 0.536185L25.2936 1ZM17.9574 11.1777L17.4625 11.2487L17.5575 11.9116L18.1661 11.6321L17.9574 11.1777ZM17.2854 1.92133L17.7149 1.66526L17.3613 1.07235L16.9082 1.59312L17.2854 1.92133ZM15.379 14.3215L14.9704 14.6097L15.3564 15.1569L15.7714 14.6313L15.379 14.3215ZM23.6165 10.0339L24.0653 10.2544L24.4891 9.39181L23.5395 9.53988L23.6165 10.0339ZM14.8409 18.4331L14.3427 18.3903L14.2789 19.132L14.9897 18.9104L14.8409 18.4331ZM12.8377 10.6225L13.3162 10.4775L13.0374 9.55779L12.4443 10.3139L12.8377 10.6225ZM12.2919 20.305L11.8985 20.6136L12.358 21.1993L12.7264 20.5524L12.2919 20.305ZM7.02277 14.0879L7.33092 13.6941L6.71289 13.2104L6.53568 13.975L7.02277 14.0879ZM11.5409 25.3633L11.3152 25.8095L11.9068 26.1086L12.0319 25.4577L11.5409 25.3633ZM17.312 18.1449L17.8003 18.0375L17.6317 17.271L17.0083 17.7477L17.312 18.1449ZM13.0701 29.7857L12.612 29.9862L12.8777 30.5934L13.3886 30.1711L13.0701 29.7857ZM6.81633 22.6935L7.042 22.2474L6.34167 21.8932L6.31659 22.6776L6.81633 22.6935ZM13.1501 33.342L13.0156 33.8236L13.654 34.0019L13.6501 33.3391L13.1501 33.342ZM14.502 30.1038L14.889 29.7872L14.3706 29.1537L14.0437 29.9041L14.502 30.1038ZM15.676 39.8585L15.3581 40.2444L15.8697 40.6659L16.1344 40.0583L15.676 39.8585ZM18.5377 37.09L18.7613 36.6428L18.0377 36.281V37.09H18.5377ZM26.2065 49.4943L26.0691 49.9751L26.7065 50.1572V49.4943H26.2065ZM5 30.4837L5.0777 29.9898L4.30239 29.8679L4.51951 30.6221L5 30.4837ZM14.2988 38.6719L14.3187 39.1715L14.9811 39.1451L14.7737 38.5154L14.2988 38.6719ZM9.51852 38.7888L9.51349 38.2889L8.70449 38.297L9.07358 39.0169L9.51852 38.7888ZM22.0019 46.3292L22.0989 46.8197L22.7492 46.691L22.4468 46.1011L22.0019 46.3292ZM9.51852 46.9052L9.33079 46.4418L8.5809 46.7456L9.188 47.2804L9.51852 46.9052ZM23.8961 49.3516L24.166 49.7725L24.724 49.4146L24.2266 48.9764L23.8961 49.3516ZM26.6685 44.9922L26.799 44.5096L25.9769 44.2874L26.1834 45.1135L26.6685 44.9922ZM37.946 53.788L37.851 54.2789L38.7961 54.4618L38.4023 53.5835L37.946 53.788ZM36.1567 53.307L36.0852 53.8019L36.3188 52.834L36.1567 53.307ZM23.6153 56.2761L23.3395 55.8591L22.6292 56.3288L23.3855 56.7202L23.6153 56.2761ZM37.5729 53.7098L37.6828 53.2221L37.4566 53.1711L37.2715 53.3109L37.5729 53.7098ZM43.3743 58.3482L43.6944 57.9641V57.964L43.3743 58.3482ZM38.8657 54.5913L38.4642 54.2934L38.1826 54.6729L38.5456 54.9754L38.8657 54.5913ZM44.6907 59.4451L44.3706 59.8292V59.8292L44.6907 59.4451ZM44.9326 59.6467L45.258 60.0263L45.7073 59.6413L45.2527 59.2625L44.9326 59.6467ZM44.8762 59.695L44.5508 59.3154L44.5508 59.3154L44.8762 59.695ZM43.3925 60.9667L43.7179 61.3463H43.7179L43.3925 60.9667ZM43.3539 60.9998L42.9523 61.2977L43.272 61.7285L43.6792 61.3794L43.3539 60.9998ZM43.2269 60.8286L43.6284 60.5307L43.2269 60.8286ZM42.1592 59.3897L42.5607 59.0917L42.1592 59.3897ZM38.7323 54.7712L39.1338 54.4732L38.7323 53.9321L38.3307 54.4732L38.7323 54.7712ZM35.3054 59.3897L35.7069 59.6876L35.3054 59.3897ZM34.2376 60.8286L33.8361 60.5307L33.8361 60.5307L34.2376 60.8286ZM34.1107 60.9998L33.7853 61.3794L34.1926 61.7285L34.5122 61.2977L34.1107 60.9998ZM34.072 60.9667L33.7466 61.3463L34.072 60.9667ZM32.5883 59.695L32.9137 59.3154L32.9137 59.3154L32.5883 59.695ZM32.5319 59.6467L32.2118 59.2625L31.7573 59.6413L32.2065 60.0263L32.5319 59.6467ZM32.7738 59.4451L33.0939 59.8292H33.0939L32.7738 59.4451ZM34.0902 58.3482L33.7701 57.964L34.0902 58.3482ZM38.5988 54.5913L38.9189 54.9754L39.282 54.6729L39.0003 54.2934L38.5988 54.5913ZM38.1665 54.0086L38.4866 53.6245L37.7649 54.3066L38.1665 54.0086ZM38.7323 54.4801L38.4122 54.8642L38.7323 55.1309L39.0523 54.8642L38.7323 54.4801ZM39.298 54.0086L39.6996 54.3066L38.978 53.6245L39.298 54.0086ZM30.1562 51.5463L30.3875 51.9895L31.2409 51.5442L30.3858 51.1021L30.1562 51.5463ZM19.1281 51.9712L18.8631 51.5472L18.2514 51.9296L18.8241 52.3682L19.1281 51.9712ZM58.9152 37.09H59.4152V36.281L58.6916 36.6428L58.9152 37.09ZM51.2465 49.4943H50.7465V50.1572L51.3838 49.9751L51.2465 49.4943ZM63.1824 30.6132L63.6408 30.4134L63.3138 29.663L62.7955 30.2965L63.1824 30.6132ZM62.0867 39.7172L61.6284 39.9169L61.8931 40.5246L62.4047 40.1031L62.0867 39.7172ZM72.4515 30.4837L72.932 30.6221L73.1491 29.8679L72.3738 29.9898L72.4515 30.4837ZM63.1527 38.6719L62.6778 38.5154L62.4704 39.1451L63.1328 39.1715L63.1527 38.6719ZM70.6352 22.6935L71.1349 22.6776L71.1098 21.8932L70.4095 22.2474L70.6352 22.6935ZM64.3014 33.342L63.8014 33.3391L63.7975 34.0019L64.4359 33.8236L64.3014 33.342ZM60.1525 18.1449L60.4562 17.7477L59.8328 17.271L59.6642 18.0375L60.1525 18.1449ZM64.3944 29.7857L64.0759 30.1711L64.5868 30.5934L64.8525 29.9862L64.3944 29.7857ZM70.4215 14.0879L70.9086 13.975L70.7314 13.2104L70.1133 13.6941L70.4215 14.0879ZM65.9034 25.3633L65.4124 25.4577L65.5375 26.1086L66.129 25.8095L65.9034 25.3633ZM64.6298 10.6746L65.0232 10.366L64.43 9.60988L64.1513 10.5296L64.6298 10.6746ZM65.1735 20.3199L64.739 20.5673L65.1073 21.2142L65.5668 20.6285L65.1735 20.3199ZM53.8552 10.0339L53.9323 9.53988L52.9826 9.39181L53.4065 10.2544L53.8552 10.0339ZM62.6309 18.4331L62.4821 18.9104L63.1928 19.132L63.1291 18.3903L62.6309 18.4331ZM60.1646 1.92133L60.5418 1.59312L60.0887 1.07235L59.7352 1.66526L60.1646 1.92133ZM62.0711 14.3215L61.6786 14.6313L62.0936 15.1569L62.4796 14.6097L62.0711 14.3215ZM52.1651 1L52.3518 0.536185L51.7115 0.278346L51.6662 0.967191L52.1651 1ZM59.5013 11.1777L59.2927 11.6321L59.9013 11.9116L59.9963 11.2487L59.5013 11.1777ZM67.9359 38.7888L68.3808 39.0169L68.7499 38.297L67.9409 38.2889L67.9359 38.7888ZM55.4525 46.3292L55.0076 46.1011L54.7052 46.691L55.3554 46.8197L55.4525 46.3292ZM67.9359 46.9023L68.2664 47.2775L68.8735 46.7427L68.1236 46.4389L67.9359 46.9023ZM53.5583 49.3487L53.2278 48.9735L52.7304 49.4117L53.2884 49.7696L53.5583 49.3487ZM50.8018 44.9922L51.2869 45.1135L51.4934 44.2874L50.6713 44.5096L50.8018 44.9922ZM39.5243 53.788L39.068 53.5835L38.6742 54.4618L39.6193 54.2789L39.5243 53.788ZM41.3125 53.3074L41.1505 52.8344L41.3841 53.8022L41.3125 53.3074ZM53.8564 56.2761L54.0863 56.7202L54.8426 56.3288L54.1322 55.8591L53.8564 56.2761ZM39.8986 53.7096L40.1999 53.3106L40.0149 53.1708L39.7886 53.2218L39.8986 53.7096ZM46.4712 51.6584L46.2415 51.2142L45.3864 51.6563L46.2398 52.1016L46.4712 51.6584ZM56.7678 52.0552L57.0718 52.4521L57.6446 52.0135L57.0328 51.6312L56.7678 52.0552ZM24.7947 1.03281C24.88 2.32907 24.3389 4.19707 23.1382 6.04054C21.9454 7.87189 20.133 9.62846 17.7487 10.7234L18.1661 11.6321C20.7435 10.4485 22.6939 8.55487 23.9761 6.58631C25.2504 4.62988 25.8965 2.54828 25.7926 0.967191L24.7947 1.03281ZM18.4523 11.1068C18.4384 11.0093 18.4421 10.8133 18.4919 10.5117C18.5401 10.22 18.6261 9.86053 18.7533 9.4512C19.0078 8.63275 19.4207 7.63668 20.0015 6.61562C21.1677 4.56562 22.9777 2.47147 25.4804 1.46382L25.1069 0.536185C22.3184 1.65892 20.3611 3.96114 19.1323 6.12116C18.5157 7.20511 18.0742 8.26746 17.7984 9.15431C17.6606 9.59763 17.5625 10.0025 17.5053 10.3486C17.4498 10.6848 17.4268 11 17.4625 11.2487L18.4523 11.1068ZM16.856 2.1774C17.5213 3.29319 17.8887 5.20295 17.6575 7.39072C17.4278 9.56411 16.6123 11.9525 14.9865 14.0117L15.7714 14.6313C17.5289 12.4053 18.405 9.83206 18.652 7.49582C18.8973 5.17398 18.5264 3.0262 17.7149 1.66526L16.856 2.1774ZM15.7875 14.0333C15.7307 13.9528 15.6449 13.7765 15.5522 13.4852C15.4625 13.2035 15.3756 12.8443 15.3028 12.4218C15.1573 11.5772 15.0722 10.5023 15.1252 9.32885C15.2318 6.9728 15.8918 4.28475 17.6626 2.24953L16.9082 1.59312C14.9351 3.8608 14.2386 6.80117 14.1263 9.28366C14.0699 10.5294 14.1597 11.6764 14.3173 12.5916C14.3962 13.0491 14.4929 13.4544 14.5993 13.7886C14.7027 14.1133 14.8256 14.4044 14.9704 14.6097L15.7875 14.0333ZM23.1678 9.81341C21.911 12.3711 19.583 16.4309 14.692 17.9557L14.9897 18.9104C20.3025 17.2541 22.7897 12.8504 24.0653 10.2544L23.1678 9.81341ZM15.339 18.4759C15.3606 18.2244 15.5364 17.6495 15.9182 16.878C16.2909 16.1249 16.836 15.2327 17.5483 14.3555C18.9776 12.5954 21.0411 10.9415 23.6935 10.5279L23.5395 9.53988C20.5561 10.0051 18.2917 11.8538 16.7721 13.7251C16.0099 14.6636 15.4254 15.6192 15.022 16.4344C14.6277 17.2311 14.381 17.9447 14.3427 18.3903L15.339 18.4759ZM12.3592 10.7676C13.0179 12.9408 13.8591 16.5421 11.8574 20.0576L12.7264 20.5524C14.9468 16.6529 13.9873 12.6916 13.3162 10.4775L12.3592 10.7676ZM12.6853 19.9964C12.573 19.8533 12.3666 19.4371 12.1699 18.7815C11.9792 18.1457 11.8127 17.3354 11.7511 16.4433C11.6273 14.6519 11.9292 12.5908 13.2311 10.9311L12.4443 10.3139C10.9356 12.2372 10.6198 14.5779 10.7534 16.5122C10.8205 17.4831 11.0014 18.3666 11.2121 19.0689C11.4169 19.7513 11.666 20.3173 11.8985 20.6136L12.6853 19.9964ZM6.71463 14.4816C9.17231 16.4049 12.1232 19.685 11.0499 25.2689L12.0319 25.4577C13.2079 19.3399 9.92214 15.7219 7.33092 13.6941L6.71463 14.4816ZM11.7665 24.9171C11.5412 24.8032 11.0733 24.4256 10.5 23.7835C9.94035 23.1567 9.31592 22.3181 8.76787 21.3299C7.66819 19.3471 6.90377 16.8157 7.50986 14.2008L6.53568 13.975C5.85395 16.9163 6.72422 19.7069 7.89337 21.8149C8.47973 22.8721 9.14825 23.7711 9.75406 24.4495C10.3461 25.1126 10.9162 25.6077 11.3152 25.8095L11.7665 24.9171ZM16.8237 18.2523C17.4825 21.2467 17.1661 25.7519 12.7516 29.4003L13.3886 30.1711C18.1595 26.2281 18.519 21.3042 17.8003 18.0375L16.8237 18.2523ZM13.5282 29.5853C13.4874 29.4921 13.4374 29.3014 13.4021 29.0012C13.3679 28.7103 13.3507 28.3456 13.359 27.9232C13.3757 27.0785 13.4941 26.0246 13.7674 24.9022C14.3161 22.6494 15.4731 20.1805 17.6157 18.5421L17.0083 17.7477C14.62 19.574 13.3757 22.2846 12.7958 24.6656C12.505 25.86 12.3774 26.9866 12.3592 27.9034C12.3502 28.3617 12.3684 28.773 12.4089 29.118C12.4484 29.4538 12.5126 29.7589 12.612 29.9862L13.5282 29.5853ZM6.59067 23.1397C9.32685 24.5236 12.6163 27.6183 12.6501 33.345L13.6501 33.3391C13.6136 27.1501 10.027 23.7571 7.042 22.2474L6.59067 23.1397ZM13.2846 32.8604C13.1865 32.8331 13.0072 32.7512 12.7524 32.5886C12.5054 32.4311 12.212 32.2137 11.8901 31.9401C11.2463 31.3928 10.5049 30.6345 9.80838 29.7129C8.41041 27.863 7.2299 25.4052 7.31608 22.7095L6.31659 22.6776C6.22052 25.6825 7.53303 28.3606 9.01057 30.3158C9.75179 31.2966 10.5437 32.108 11.2424 32.702C11.5917 32.9989 11.9218 33.245 12.2146 33.4318C12.4997 33.6135 12.7767 33.7569 13.0156 33.8236L13.2846 32.8604ZM14.1151 30.4204C15.6366 32.2799 17.0127 35.5393 15.2177 39.6588L16.1344 40.0583C18.1141 35.5148 16.5871 31.8624 14.889 29.7872L14.1151 30.4204ZM15.994 39.4726C15.9666 39.4501 15.8844 39.3543 15.7652 39.1304C15.654 38.9213 15.5324 38.6426 15.4092 38.3053C15.1632 37.6316 14.9223 36.7555 14.7484 35.8006C14.3956 33.8641 14.3404 31.7264 14.9604 30.3035L14.0437 29.9041C13.2999 31.611 13.4035 33.9979 13.7646 35.9799C13.9476 36.9843 14.2024 37.9159 14.4699 38.6483C14.6034 39.0141 14.743 39.3381 14.8824 39.6C15.0138 39.847 15.1714 40.0906 15.3581 40.2444L15.994 39.4726ZM18.3142 37.5373C19.2241 37.9922 21.0846 39.298 22.7137 41.3479C24.3373 43.391 25.7065 46.1413 25.7065 49.4943H26.7065C26.7065 45.8558 25.2187 42.8927 23.4966 40.7258C21.78 38.5658 19.8062 37.1652 18.7613 36.6428L18.3142 37.5373ZM26.3438 49.0136C26.2406 48.9841 26.0345 48.8756 25.7265 48.6412C25.4315 48.4166 25.0809 48.1062 24.6949 47.7219C23.9235 46.954 23.0322 45.913 22.1872 44.7273C20.4798 42.3316 19.0377 39.4521 19.0377 37.09H18.0377C18.0377 39.7799 19.6406 42.8771 21.3729 45.3077C22.2477 46.5353 23.1749 47.6199 23.9894 48.4306C24.3963 48.8357 24.7806 49.178 25.1208 49.4369C25.448 49.686 25.7776 49.8918 26.0691 49.9751L26.3438 49.0136ZM4.9223 30.9777C7.95133 31.4542 12.0325 33.3889 13.8239 38.8283L14.7737 38.5154C12.8377 32.6369 8.38212 30.5096 5.0777 29.9898L4.9223 30.9777ZM14.2789 38.1722C14.1772 38.1763 13.9814 38.1534 13.6889 38.077C13.4055 38.003 13.0595 37.8863 12.6691 37.7247C11.8884 37.4017 10.9498 36.9078 10.0038 36.2446C8.10513 34.9136 6.22662 32.9372 5.48049 30.3454L4.51951 30.6221C5.35123 33.5112 7.42305 35.6567 9.42979 37.0635C10.4365 37.7692 11.4394 38.2981 12.2868 38.6487C12.7104 38.824 13.1001 38.9568 13.4362 39.0446C13.7633 39.13 14.0709 39.1813 14.3187 39.1715L14.2789 38.1722ZM9.52354 39.2888C10.5408 39.2786 12.7922 39.592 15.1772 40.6731C17.5541 41.7505 20.0272 43.5735 21.5569 46.5573L22.4468 46.1011C20.7869 42.8633 18.111 40.9051 15.59 39.7623C13.077 38.6231 10.6816 38.2771 9.51349 38.2889L9.52354 39.2888ZM21.9048 45.8387C21.7995 45.8596 21.5666 45.8571 21.1855 45.789C20.8206 45.7237 20.367 45.6074 19.8482 45.4415C18.8113 45.11 17.5432 44.5901 16.2504 43.9205C13.638 42.5673 11.0411 40.6627 9.96345 38.5607L9.07358 39.0169C10.3007 41.4106 13.1401 43.4356 15.7905 44.8084C17.129 45.5018 18.449 46.044 19.5436 46.394C20.0905 46.5688 20.5886 46.6981 21.0095 46.7733C21.4143 46.8457 21.8015 46.8786 22.0989 46.8197L21.9048 45.8387ZM9.70625 47.3686C10.6491 46.9867 12.859 46.454 15.4741 46.5869C18.0805 46.7193 21.0495 47.5102 23.5656 49.7268L24.2266 48.9764C21.4963 46.5711 18.2893 45.7286 15.5249 45.5881C12.7693 45.4481 10.4135 46.0032 9.33079 46.4418L9.70625 47.3686ZM23.6262 48.9307C23.5359 48.9886 23.3182 49.0716 22.9386 49.1477C22.5751 49.2206 22.1105 49.2784 21.5669 49.314C20.4807 49.3851 19.1103 49.3656 17.662 49.2158C14.7356 48.9131 11.6215 48.0915 9.84903 46.53L9.188 47.2804C11.2064 49.0585 14.5901 49.9034 17.5591 50.2105C19.0586 50.3656 20.4854 50.3869 21.6323 50.3118C22.2052 50.2743 22.7161 50.2122 23.1353 50.1282C23.5385 50.0473 23.9108 49.9361 24.166 49.7725L23.6262 48.9307ZM26.5381 45.4749C33.0466 47.2338 36.5634 51.926 37.4898 53.9926L38.4023 53.5835C37.374 51.2897 33.643 46.3591 26.799 44.5096L26.5381 45.4749ZM36.3188 52.834C33.9788 52.0321 31.8164 50.5986 30.1653 49.0667C28.4969 47.5189 27.4199 45.9362 27.1536 44.871L26.1834 45.1135C26.5206 46.462 27.7694 48.208 29.4851 49.7998C31.218 51.4074 33.498 52.9244 35.9946 53.78L36.3188 52.834ZM23.8911 56.6932C28.5281 53.6272 33.3205 53.4024 36.0852 53.8019L36.2282 52.8122C33.2786 52.3859 28.2252 52.6287 23.3395 55.8591L23.8911 56.6932ZM37.2715 53.3109C35.0991 54.9518 32.3114 55.8883 29.7525 56.2543C28.476 56.4369 27.2688 56.4756 26.2387 56.3934C25.1999 56.3104 24.3767 56.1072 23.8451 55.8321L23.3855 56.7202C24.0838 57.0816 25.0558 57.3021 26.1591 57.3902C27.2713 57.479 28.5531 57.436 29.8941 57.2442C32.5704 56.8615 35.5315 55.8784 37.8742 54.1088L37.2715 53.3109ZM38.0411 53.2971C37.9214 53.274 37.802 53.2489 37.6828 53.2221L37.4629 54.1976C37.5919 54.2267 37.7213 54.2538 37.851 54.2789L38.0411 53.2971ZM43.6944 57.964L39.1858 54.2072L38.5456 54.9754L43.0542 58.7323L43.6944 57.964ZM45.0108 59.0609L43.6944 57.9641L43.0542 58.7323L44.3706 59.8292L45.0108 59.0609ZM45.2527 59.2625L45.0108 59.0609L44.3706 59.8292L44.6126 60.0308L45.2527 59.2625ZM45.2015 60.0747L45.258 60.0263L44.6073 59.267L44.5508 59.3154L45.2015 60.0747ZM43.7179 61.3463L45.2016 60.0747L44.5508 59.3154L43.0671 60.587L43.7179 61.3463ZM43.6792 61.3794L43.7179 61.3463L43.0671 60.587L43.0285 60.6201L43.6792 61.3794ZM42.8253 61.1266L42.9523 61.2977L43.7554 60.7018L43.6284 60.5307L42.8253 61.1266ZM41.7576 59.6876L42.8253 61.1266L43.6284 60.5307L42.5607 59.0917L41.7576 59.6876ZM38.3307 55.0691L41.7576 59.6876L42.5607 59.0917L39.1338 54.4732L38.3307 55.0691ZM35.7069 59.6876L39.1338 55.0691L38.3307 54.4732L34.9038 59.0917L35.7069 59.6876ZM34.6392 61.1266L35.7069 59.6876L34.9038 59.0917L33.8361 60.5307L34.6392 61.1266ZM34.5122 61.2977L34.6392 61.1266L33.8361 60.5307L33.7091 60.7018L34.5122 61.2977ZM33.7466 61.3463L33.7853 61.3794L34.436 60.6201L34.3974 60.587L33.7466 61.3463ZM32.263 60.0747L33.7466 61.3463L34.3974 60.587L32.9137 59.3154L32.263 60.0747ZM32.2065 60.0263L32.263 60.0747L32.9137 59.3154L32.8573 59.267L32.2065 60.0263ZM32.4538 59.0609L32.2118 59.2625L32.852 60.0308L33.0939 59.8292L32.4538 59.0609ZM33.7701 57.964L32.4537 59.0609L33.0939 59.8292L34.4103 58.7323L33.7701 57.964ZM38.2787 54.2072L33.7701 57.964L34.4103 58.7323L38.9189 54.9754L38.2787 54.2072ZM37.7649 54.3066L38.1973 54.8892L39.0003 54.2934L38.568 53.7107L37.7649 54.3066ZM39.0523 54.096L38.4866 53.6245L37.8464 54.3928L38.4122 54.8642L39.0523 54.096ZM38.978 53.6245L38.4122 54.096L39.0523 54.8642L39.6181 54.3928L38.978 53.6245ZM39.2673 54.8892L39.6996 54.3066L38.8965 53.7107L38.4642 54.2934L39.2673 54.8892ZM30.3858 51.1021C29.5073 50.6479 27.7063 50.0979 25.606 49.9841C23.4992 49.8699 21.0325 50.1915 18.8631 51.5472L19.3931 52.3952C21.333 51.1829 23.5748 50.8755 25.5519 50.9826C27.5355 51.0901 29.194 51.6116 29.9266 51.9904L30.3858 51.1021ZM18.8241 52.3682C19.3288 52.7547 20.071 53.0345 20.9151 53.2181C21.7701 53.404 22.7742 53.5008 23.8389 53.492C25.9627 53.4744 28.3823 53.0359 30.3875 51.9895L29.9249 51.103C28.0958 52.0575 25.8421 52.4754 23.8307 52.492C22.8278 52.5003 21.899 52.4086 21.1276 52.2409C20.3455 52.0708 19.7682 51.8316 19.4322 51.5743L18.8241 52.3682ZM58.6916 36.6428C57.6467 37.1652 55.6729 38.5658 53.9564 40.7258C52.2343 42.8927 50.7465 45.8558 50.7465 49.4943H51.7465C51.7465 46.1413 53.1156 43.391 54.7392 41.3479C56.3683 39.298 58.2289 37.9922 59.1388 37.5373L58.6916 36.6428ZM51.3838 49.9751C51.6754 49.8918 52.0049 49.686 52.3321 49.4369C52.6723 49.178 53.0566 48.8357 53.4635 48.4306C54.278 47.6199 55.2052 46.5353 56.0801 45.3077C57.8123 42.8771 59.4152 39.7799 59.4152 37.09H58.4152C58.4152 39.4521 56.9731 42.3316 55.2657 44.7273C54.4208 45.913 53.5295 46.954 52.758 47.7219C52.372 48.1062 52.0215 48.4166 51.7265 48.6412C51.4184 48.8756 51.2123 48.9841 51.1091 49.0136L51.3838 49.9751ZM62.7955 30.2965C61.2048 32.2406 59.7745 35.6624 61.6284 39.9169L62.5451 39.5175C60.876 35.6869 62.1553 32.658 63.5694 30.9298L62.7955 30.2965ZM62.4047 40.1031C62.5843 39.9551 62.7339 39.7229 62.8569 39.4916C62.9879 39.2453 63.1188 38.9415 63.2438 38.5992C63.4941 37.9136 63.7324 37.0423 63.9035 36.1032C64.2408 34.252 64.3391 32.016 63.6408 30.4134L62.7241 30.8129C63.2986 32.1314 63.2487 34.1182 62.9197 35.924C62.7577 36.8135 62.5333 37.6294 62.3045 38.2561C62.1898 38.57 62.0769 38.8286 61.9741 39.0219C61.9227 39.1185 61.8767 39.1934 61.8375 39.2485C61.8181 39.2757 61.8018 39.296 61.7891 39.3104C61.7828 39.3175 61.7778 39.3227 61.7742 39.3263C61.7705 39.3299 61.7687 39.3314 61.7688 39.3313L62.4047 40.1031ZM72.3738 29.9898C69.0694 30.5096 64.6138 32.6369 62.6778 38.5154L63.6276 38.8283C65.419 33.3889 69.5002 31.4542 72.5292 30.9777L72.3738 29.9898ZM63.1328 39.1715C63.3806 39.1813 63.6882 39.13 64.0153 39.0446C64.3514 38.9568 64.7411 38.824 65.1647 38.6487C66.0121 38.2981 67.015 37.7692 68.0217 37.0635C70.0285 35.6567 72.1003 33.5112 72.932 30.6221L71.971 30.3454C71.2249 32.9372 69.3464 34.9136 67.4477 36.2446C66.5017 36.9078 65.5631 37.4017 64.7824 37.7247C64.392 37.8863 64.046 38.003 63.7626 38.077C63.4701 38.1534 63.2743 38.1763 63.1726 38.1722L63.1328 39.1715ZM70.4095 22.2474C67.4245 23.7571 63.8379 27.1501 63.8014 33.3391L64.8014 33.345C64.8352 27.6183 68.1246 24.5236 70.8608 23.1397L70.4095 22.2474ZM64.4359 33.8236C64.6748 33.7569 64.9518 33.6135 65.2368 33.4318C65.5297 33.245 65.8598 32.9989 66.2091 32.702C66.9078 32.108 67.6997 31.2966 68.4409 30.3158C69.9185 28.3606 71.231 25.6825 71.1349 22.6776L70.1354 22.7095C70.2216 25.4052 69.0411 27.863 67.6431 29.7129C66.9466 30.6345 66.2052 31.3928 65.5614 31.9401C65.2395 32.2137 64.9461 32.4311 64.6991 32.5886C64.4443 32.7512 64.265 32.8331 64.1669 32.8604L64.4359 33.8236ZM59.6642 18.0375C58.9455 21.3042 59.305 26.2281 64.0759 30.1711L64.7129 29.4003C60.2984 25.7519 59.982 21.2467 60.6408 18.2523L59.6642 18.0375ZM64.8525 29.9862C64.9519 29.7589 65.0161 29.4538 65.0556 29.118C65.0962 28.773 65.1143 28.3617 65.1053 27.9034C65.0872 26.9866 64.9596 25.86 64.6687 24.6656C64.0888 22.2846 62.8446 19.574 60.4562 17.7477L59.8488 18.5421C61.9914 20.1805 63.1485 22.6494 63.6971 24.9022C63.9704 26.0246 64.0888 27.0785 64.1055 27.9232C64.1138 28.3456 64.0966 28.7103 64.0624 29.0012C64.0271 29.3014 63.9771 29.4921 63.9363 29.5853L64.8525 29.9862ZM70.1133 13.6941C67.5221 15.7219 64.2364 19.3399 65.4124 25.4577L66.3944 25.2689C65.321 19.685 68.272 16.4049 70.7296 14.4816L70.1133 13.6941ZM66.129 25.8095C66.5281 25.6077 67.0981 25.1126 67.6902 24.4495C68.296 23.7711 68.9645 22.8721 69.5509 21.8149C70.72 19.7069 71.5903 16.9163 70.9086 13.975L69.9344 14.2008C70.5405 16.8157 69.7761 19.3471 68.6764 21.3299C68.1283 22.3181 67.5039 23.1567 66.9443 23.7835C66.3709 24.4256 65.9031 24.8032 65.6778 24.9171L66.129 25.8095ZM64.1513 10.5296C63.4827 12.7353 62.5266 16.682 64.739 20.5673L65.608 20.0725C63.6143 16.5713 64.4521 12.9845 65.1083 10.8197L64.1513 10.5296ZM65.5668 20.6285C65.7987 20.333 66.0469 19.7689 66.2509 19.089C66.4608 18.3894 66.6411 17.5091 66.7079 16.5418C66.841 14.6146 66.5264 12.2824 65.0232 10.366L64.2364 10.9832C65.5328 12.636 65.8335 14.6886 65.7103 16.4729C65.6489 17.3614 65.4831 18.1684 65.2931 18.8017C65.0972 19.4547 64.8917 19.869 64.7801 20.0113L65.5668 20.6285ZM53.4065 10.2544C54.6821 12.8504 57.1692 17.2541 62.4821 18.9104L62.7797 17.9557C57.8888 16.4309 55.5608 12.3711 54.304 9.81341L53.4065 10.2544ZM63.1291 18.3903C63.0908 17.9447 62.8441 17.2311 62.4498 16.4344C62.0464 15.6192 61.4618 14.6636 60.6997 13.7251C59.1801 11.8538 56.9157 10.0051 53.9323 9.53988L53.7782 10.5279C56.4306 10.9415 58.4941 12.5954 59.9234 14.3555C60.6357 15.2327 61.1809 16.1249 61.5535 16.878C61.9354 17.6495 62.1111 18.2244 62.1327 18.4759L63.1291 18.3903ZM59.7352 1.66526C58.9237 3.0262 58.5527 5.17398 58.7981 7.49582C59.045 9.83206 59.9211 12.4053 61.6786 14.6313L62.4635 14.0117C60.8377 11.9525 60.0223 9.56411 59.7926 7.39072C59.5613 5.20295 59.9288 3.29319 60.5941 2.1774L59.7352 1.66526ZM62.4796 14.6097C62.6245 14.4044 62.7473 14.1133 62.8507 13.7886C62.9572 13.4544 63.0539 13.0491 63.1327 12.5916C63.2904 11.6764 63.3801 10.5294 63.3238 9.28366C63.2115 6.80117 62.5149 3.8608 60.5418 1.59312L59.7874 2.24953C61.5583 4.28475 62.2182 6.9728 62.3248 9.32885C62.3779 10.5023 62.2927 11.5772 62.1472 12.4218C62.0745 12.8443 61.9876 13.2035 61.8979 13.4852C61.8051 13.7765 61.7193 13.9528 61.6625 14.0333L62.4796 14.6097ZM51.6662 0.967191C51.5622 2.54828 52.2084 4.62988 53.4826 6.58631C54.7648 8.55487 56.7152 10.4485 59.2927 11.6321L59.71 10.7234C57.3257 9.62846 55.5134 7.87189 54.3206 6.04054C53.1199 4.19707 52.5788 2.32907 52.664 1.03281L51.6662 0.967191ZM59.9963 11.2487C60.0319 11 60.009 10.6848 59.9534 10.3486C59.8962 10.0025 59.7981 9.59763 59.6603 9.15431C59.3846 8.26746 58.9431 7.20511 58.3264 6.12116C57.0976 3.96114 55.1403 1.65892 52.3518 0.536185L51.9783 1.46382C54.481 2.47147 56.291 4.56562 57.4572 6.61562C58.0381 7.63668 58.4509 8.63275 58.7054 9.4512C58.8327 9.86053 58.9186 10.22 58.9668 10.5117C59.0166 10.8133 59.0204 11.0093 59.0064 11.1068L59.9963 11.2487ZM67.9409 38.2889C66.7728 38.2771 64.3773 38.6231 61.8644 39.7623C59.3433 40.9051 56.6675 42.8633 55.0076 46.1011L55.8975 46.5573C57.4272 43.5735 59.9003 41.7505 62.2772 40.6731C64.6622 39.592 66.9136 39.2786 67.9308 39.2888L67.9409 38.2889ZM55.3554 46.8197C55.6529 46.8786 56.04 46.8457 56.4448 46.7733C56.8657 46.6981 57.3638 46.5688 57.9108 46.394C59.0054 46.044 60.3254 45.5018 61.6639 44.8084C64.3143 43.4356 67.1536 41.4106 68.3808 39.0169L67.4909 38.5607C66.4133 40.6627 63.8164 42.5673 61.204 43.9205C59.9111 44.5901 58.6431 45.11 57.6062 45.4415C57.0874 45.6074 56.6338 45.7237 56.2689 45.789C55.8878 45.8571 55.6549 45.8596 55.5496 45.8387L55.3554 46.8197ZM68.1236 46.4389C67.0409 46.0003 64.6851 45.4452 61.9295 45.5853C59.1651 45.7257 55.9581 46.5682 53.2278 48.9735L53.8888 49.7239C56.4049 47.5073 59.3739 46.7164 61.9802 46.584C64.5954 46.4511 66.8053 46.9838 67.7481 47.3657L68.1236 46.4389ZM53.2884 49.7696C53.5436 49.9332 53.9159 50.0444 54.3191 50.1253C54.7383 50.2094 55.2492 50.2714 55.8221 50.3089C56.9689 50.384 58.3958 50.3627 59.8953 50.2076C62.8643 49.9005 66.2479 49.0556 68.2664 47.2775L67.6054 46.5271C65.8329 48.0886 62.7188 48.9102 59.7924 49.2129C58.3441 49.3627 56.9737 49.3822 55.8875 49.3111C55.3439 49.2755 54.8793 49.2177 54.5158 49.1448C54.1362 49.0687 53.9185 48.9857 53.8282 48.9278L53.2884 49.7696ZM50.6713 44.5096C43.8273 46.3591 40.0963 51.2897 39.068 53.5835L39.9805 53.9926C40.9069 51.926 44.4237 47.2338 50.9322 45.4749L50.6713 44.5096ZM41.4746 53.7804C43.9715 52.9249 46.2517 51.4079 47.9848 49.8001C49.7007 48.2082 50.9497 46.4621 51.2869 45.1135L50.3167 44.871C50.0504 45.9363 48.9732 47.5191 47.3047 49.067C45.6533 50.599 43.4907 52.0326 41.1505 52.8344L41.4746 53.7804ZM54.1322 55.8591C49.2451 52.6277 44.1902 52.3858 41.2409 52.8125L41.3841 53.8022C44.1484 53.4023 48.9423 53.6263 53.5807 56.6932L54.1322 55.8591ZM39.5972 54.1085C41.9399 55.8782 44.9011 56.8614 47.5774 57.2442C48.9185 57.436 50.2004 57.479 51.3125 57.3902C52.4159 57.3021 53.388 57.0816 54.0863 56.7202L53.6266 55.8321C53.095 56.1072 52.2718 56.3104 51.2329 56.3934C50.2029 56.4756 48.9956 56.4369 47.719 56.2543C45.1601 55.8883 42.3723 54.9516 40.1999 53.3106L39.5972 54.1085ZM39.6193 54.2789C39.7494 54.2537 39.8792 54.2265 40.0085 54.1973L39.7886 53.2218C39.669 53.2488 39.5492 53.2739 39.4292 53.2971L39.6193 54.2789ZM46.7008 52.1025C47.38 51.7514 48.9237 51.2654 50.7719 51.1652C52.6135 51.0654 54.6992 51.352 56.5028 52.4792L57.0328 51.6312C54.9997 50.3606 52.6892 50.0598 50.7178 50.1667C48.7529 50.2731 47.0667 50.7876 46.2415 51.2142L46.7008 52.1025ZM56.4638 51.6582C56.1557 51.8942 55.6221 52.1162 54.8939 52.2745C54.1765 52.4305 53.3117 52.516 52.3774 52.5082C50.5032 52.4927 48.4044 52.1033 46.7025 51.2151L46.2398 52.1016C48.1179 53.0817 50.3826 53.4918 52.3692 53.5082C53.3653 53.5164 54.3054 53.4259 55.1064 53.2517C55.8966 53.0798 56.595 52.8173 57.0718 52.4521L56.4638 51.6582Z" fill="#00F7A5" mask="url(#path-1-outside-1_13742_6269)"></path><path d="M32.0469 12.12L31.8369 11.9843L31.8179 12.0137L31.8077 12.0471L31.1613 14.1693L31.0587 14.5064L31.4107 14.492L34.6508 14.3592L34.8302 14.3519L34.8806 14.1795L35.1747 13.1721L35.1856 13.1349L35.1847 13.0961C35.1808 12.9333 35.1288 12.6431 35.0605 12.3173C34.9903 11.9826 34.8971 11.5848 34.8011 11.1923C34.6133 10.4245 34.4134 9.67038 34.3505 9.43501C34.345 9.4007 34.3354 9.36742 34.3242 9.33617L34.2104 9.02002L33.9403 9.21979C33.7679 9.34725 33.5505 9.5935 33.3338 9.86449C33.1111 10.1429 32.8705 10.4716 32.6496 10.7845C32.4284 11.0978 32.2253 11.3976 32.0777 11.6188C32.0039 11.7295 31.9438 11.8207 31.9021 11.8843L31.854 11.958L31.8413 11.9774L31.8381 11.9825L31.8372 11.9838L31.837 11.9842L31.8369 11.9843L32.0469 12.12ZM31.1251 16.0193L30.9105 15.9846L30.8463 16.1923L29.3975 20.8799L29.3675 20.9769L29.4136 21.0674L31.9255 25.987L31.9888 26.1111L32.1276 26.1225L35.8788 26.4316L36.0174 26.443L36.1002 26.3312L37.8473 23.9723L37.8975 23.9045L37.8964 23.8203L37.8618 21.1067L37.8613 21.0656L37.8476 21.0268L36.433 17.0095L36.3837 16.8694L36.2371 16.8457L31.1251 16.0193ZM24.3895 20.1257L24.3611 20.1576L24.345 20.1971L23.1084 23.2224L23.0568 23.3487L23.1351 23.4604L23.7438 24.3294L23.851 24.4823L24.028 24.4229L26.0542 23.7439L26.137 23.7162L26.1845 23.6429L26.4779 23.1907L26.5451 23.087L26.5036 22.9705L25.8718 21.2012L25.3963 19.5688L25.2698 19.1344L24.9694 19.4727L24.3895 20.1257ZM23.7909 30.285L23.8075 30.3615L23.8647 30.4148L28.248 34.5058L28.4327 34.6783L28.6032 34.4917L32.3718 30.3655L32.5069 30.2175L32.392 30.0534L28.6233 24.6742L28.5224 24.5302L28.3528 24.5764L23.1061 26.0062L22.8773 26.0685L22.9275 26.3003L23.7909 30.285ZM41.1706 10.0906L41.1467 10.1444L41.1493 10.2031L41.2519 12.5615L41.254 12.6083L41.2728 12.6512L41.84 13.9417L41.9299 14.1462L42.1432 14.0798L44.4457 13.363L44.5075 13.3438L44.5522 13.2969L44.7999 13.0374L44.9413 12.8892L44.8237 12.7214L42.127 8.87218L41.8734 8.5102L41.6938 8.91405L41.1706 10.0906ZM39.5954 21.0858L39.577 21.1669L39.6108 21.2428L41.4892 25.4627L41.5376 25.5714L41.6525 25.6024L44.6437 26.4099L44.7566 26.4404L44.8523 26.3733L46.7506 25.0437L46.8275 24.9898L46.8499 24.8985L48.0918 19.8431L48.116 19.7447L48.0649 19.6573L45.349 15.0113L45.2632 14.8646L45.0952 14.8904L41.0201 15.5171L40.8519 15.543L40.8143 15.709L39.5954 21.0858ZM28.407 36.9645L28.3668 36.9992L28.3442 37.0472L27.3978 39.0534L27.3535 39.1472L27.3887 39.2448L28.5296 42.4079L28.5775 42.5408L28.7161 42.5683L39.274 44.6647L39.3241 44.6746L39.3741 44.6641L47.6773 42.9213L47.7371 42.9088L47.7844 42.87L50.5852 40.575L50.7582 40.4332L50.6365 40.2456L46.9513 34.5642L46.9514 34.5641L46.9463 34.5568L43.4115 29.5114L43.3626 29.4416L43.2813 29.4162L37.7768 27.6979L37.6204 27.6491L37.5132 27.773L32.9593 33.0393L28.407 36.9645ZM52.3164 18.1198L52.0212 17.9864L51.9669 18.3058L51.7066 19.8385L51.7065 19.8385L51.7056 19.8456L51.5251 21.1295L51.4986 21.3175L51.6726 21.3935L54.0699 22.4398L54.3698 22.5707L54.4173 22.247L54.7135 20.2281L54.7314 20.1065L54.646 20.0181L53.2301 18.5523L53.1969 18.5179L53.1533 18.4982L52.3164 18.1198ZM50.2521 23.4521L50.0604 23.3617L49.9399 23.536L45.8065 29.5122L45.7055 29.6582L45.8101 29.8017L49.2123 34.47L49.2812 34.5645L49.3979 34.5722L51.2518 34.6944L51.4163 34.7053L51.4911 34.5584L54.6885 28.2749L54.7368 28.1802L54.7019 28.0797L53.6884 25.1557L53.6539 25.0564L53.5588 25.0115L50.2521 23.4521Z" stroke="#00F7A5" stroke-width="0.5" stroke-linecap="round"></path></g><defs><filter id="filter0_d_13742_6269" x="0.300781" y="0.277344" width="76.8477" height="69.4492" filterUnits="userSpaceOnUse" color-interpolation-filters="sRGB"><feFlood flood-opacity="0" result="BackgroundImageFix"></feFlood><feColorMatrix in="SourceAlpha" type="matrix" values="0 0 0 0 0 0 0 0 0 0 0 0 0 0 0 0 0 0 127 0" result="hardAlpha"></feColorMatrix><feOffset dy="4"></feOffset><feGaussianBlur stdDeviation="2"></feGaussianBlur><feComposite in2="hardAlpha" operator="out"></feComposite><feColorMatrix type="matrix" values="0 0 0 0 0 0 0 0 0 0 0 0 0 0 0 0 0 0 0.25 0"></feColorMatrix><feBlend mode="normal" in2="BackgroundImageFix" result="effect1_dropShadow_13742_6269"></feBlend><feBlend mode="normal" in="SourceGraphic" in2="effect1_dropShadow_13742_6269" result="shape"></feBlend></filter></defs></svg>