<svg width="146" height="36" viewBox="0 0 146 36" fill="none" xmlns="http://www.w3.org/2000/svg"><path d="M16.3823 11.9345C18.2498 14.1706 18.4218 17.3734 16.7918 19.7898L16.4642 20.2812L14.6294 23.0007L10.9433 28.4724L7.1099 34.1734C6.1843 35.656 4.3413 36.3932 2.5802 35.787C0.991126 35.2382 0 33.6573 0 31.9863V3.83345C0 1.72014 1.72014 0 3.84164 0H4.61979C5.75017 0 6.81502 0.499659 7.54403 1.35973L16.3823 11.9345Z" fill="#6A68D2" data-sentry-element="path" data-sentry-source-file="index.tsx"></path><path d="M39.8121 3.96391V32.1578C39.8121 34.2793 38.092 35.9994 35.9705 35.9994H35.1923C34.0619 35.9994 32.9971 35.4998 32.2681 34.6397L23.4299 24.0567C21.5623 21.8206 21.3985 18.6178 23.0203 16.2015L23.3479 15.71L25.1828 12.9987L29.3684 6.78166L32.7104 1.82603C33.6196 0.351627 35.4462 -0.385574 37.2155 0.204187C38.8046 0.728419 39.8121 2.29292 39.8121 3.96391Z" fill="#6A68D2" data-sentry-element="path" data-sentry-source-file="index.tsx"></path><g id="aidols"><path d="M61.8035 11.95C63.3864 11.95 64.8476 12.3625 66.187 13.1875C67.5508 13.9875 68.6223 15.0875 69.4016 16.4875C70.1809 17.8625 70.5705 19.3625 70.5705 20.9875V30.55H65.9313V20.9875C65.9313 19.8125 65.5173 18.8125 64.6893 17.9875C63.8857 17.1375 62.9116 16.7125 61.767 16.7125C60.6468 16.7125 59.6727 17.1375 58.8447 17.9875C58.041 18.8125 57.6392 19.8125 57.6392 20.9875V21.9625C57.6392 23.1375 58.041 24.1375 58.8447 24.9625C59.6727 25.7875 60.6589 26.2 61.8035 26.2C62.4123 26.2 63.009 26.05 63.5934 25.75V30.775C63.009 30.925 62.4123 31 61.8035 31C59.3682 31 57.2861 30.1125 55.557 28.3375C53.8523 26.5625 53 24.4375 53 21.9625V20.9875C53 18.5125 53.8523 16.3875 55.557 14.6125C57.2861 12.8375 59.3682 11.95 61.8035 11.95Z" fill="white"></path><path d="M78.491 30.55H73.8153V12.4H78.491V30.55ZM76.1532 9.4C75.6661 9.4 75.2156 9.2875 74.8016 9.0625C74.412 8.8125 74.0954 8.4875 73.8518 8.0875C73.6327 7.6625 73.5231 7.2 73.5231 6.7C73.5231 5.95 73.7788 5.3125 74.2902 4.7875C74.8016 4.2625 75.4226 4 76.1532 4C76.8838 4 77.5048 4.2625 78.0162 4.7875C78.5276 5.3125 78.7833 5.95 78.7833 6.7C78.7833 7.45 78.5276 8.0875 78.0162 8.6125C77.5048 9.1375 76.8838 9.4 76.1532 9.4Z" fill="white"></path><path d="M94.2556 4.45H98.8948V21.9625C98.8948 24.4375 98.0303 26.5625 96.3013 28.3375C94.5966 30.1125 92.5266 31 90.0913 31C87.6804 31 85.6104 30.1125 83.8814 28.3375C82.1767 26.5625 81.3243 24.4375 81.3243 21.9625V20.9875C81.3243 18.5125 82.1767 16.3875 83.8814 14.6125C85.6104 12.8375 87.6926 11.95 90.1279 11.95C91.589 11.95 92.965 12.3125 94.2556 13.0375V4.45ZM94.2556 21.9625V20.9875C94.2556 19.8125 93.8417 18.8125 93.0137 17.9875C92.21 17.1375 91.2359 16.7125 90.0913 16.7125C88.9711 16.7125 87.997 17.1375 87.169 17.9875C86.3654 18.8125 85.9635 19.8125 85.9635 20.9875V21.9625C85.9635 23.1375 86.3654 24.1375 87.169 24.9625C87.997 25.7875 88.9711 26.2 90.0913 26.2C91.2359 26.2 92.21 25.7875 93.0137 24.9625C93.8417 24.1375 94.2556 23.1375 94.2556 21.9625Z" fill="white"></path><path d="M103.894 14.6125C105.623 12.8375 107.693 11.95 110.104 11.95C112.539 11.95 114.609 12.8375 116.314 14.6125C118.043 16.3875 118.907 18.5125 118.907 20.9875V21.9625C118.907 24.4375 118.043 26.5625 116.314 28.3375C114.609 30.1125 112.539 31 110.104 31C107.693 31 105.623 30.1125 103.894 28.3375C102.189 26.5625 101.337 24.4375 101.337 21.9625V20.9875C101.337 18.5125 102.189 16.3875 103.894 14.6125ZM114.268 21.9625V20.9875C114.268 19.8125 113.854 18.8125 113.026 17.9875C112.223 17.1375 111.248 16.7125 110.104 16.7125C108.984 16.7125 108.01 17.1375 107.182 17.9875C106.378 18.8125 105.976 19.8125 105.976 20.9875V21.9625C105.976 23.1375 106.378 24.1375 107.182 24.9625C108.01 25.7875 108.984 26.2 110.104 26.2C111.248 26.2 112.223 25.7875 113.026 24.9625C113.854 24.1375 114.268 23.1375 114.268 21.9625Z" fill="white"></path><path d="M126.399 30.55H121.76V4.45H126.399V30.55Z" fill="white"></path><path d="M140.411 19.1125C141.945 19.1125 143.26 19.675 144.356 20.8C145.452 21.9 146 23.25 146 24.85C146 26.425 145.452 27.775 144.356 28.9C143.26 30 141.945 30.55 140.411 30.55H129.525V25.7875H140.411C140.679 25.7875 140.898 25.7 141.069 25.525C141.263 25.325 141.361 25.1 141.361 24.85C141.361 24.575 141.263 24.35 141.069 24.175C140.898 23.975 140.679 23.875 140.411 23.875H135.114C133.58 23.875 132.265 23.3125 131.169 22.1875C130.073 21.0625 129.525 19.7125 129.525 18.1375C129.525 16.5625 130.073 15.2125 131.169 14.0875C132.265 12.9625 133.58 12.4 135.114 12.4H143.808V17.2H135.114C134.846 17.2 134.615 17.3 134.42 17.5C134.25 17.675 134.165 17.9 134.165 18.175C134.165 18.425 134.25 18.65 134.42 18.85C134.615 19.025 134.846 19.1125 135.114 19.1125H140.411Z" fill="white"></path></g></svg>
