<svg width="1140" height="247" viewBox="0 0 1140 247" fill="none" xmlns="http://www.w3.org/2000/svg">
<path d="M340.746 62.2787V89.1869C340.746 89.8582 340.202 90.4124 339.518 90.4124H324.191C315.049 90.4124 307.637 97.8081 307.637 106.93V122.223C307.637 122.894 307.092 123.448 306.408 123.448H279.451C278.778 123.448 278.223 122.905 278.223 122.223V95.3145C278.223 94.6431 278.767 94.0889 279.451 94.0889H294.777C303.92 94.0889 311.332 86.6932 311.332 77.5711V62.2787C311.332 61.6074 311.877 61.0532 312.56 61.0532H339.529C340.202 61.0532 340.757 61.5967 340.757 62.2787H340.746Z" fill="url(#paint0_radial_151_1037)"/>
<path d="M406.939 188.261V161.353C406.939 160.681 406.394 160.127 405.71 160.127H390.384C381.241 160.127 373.829 152.731 373.829 143.609V128.317C373.829 127.645 373.284 127.091 372.601 127.091H345.633C344.96 127.091 344.404 127.635 344.404 128.317V155.225C344.404 155.896 344.949 156.45 345.633 156.45H360.959C370.102 156.45 377.514 163.846 377.514 172.968V188.261C377.514 188.932 378.059 189.486 378.742 189.486H405.71C406.383 189.486 406.939 188.943 406.939 188.261Z" fill="url(#paint1_radial_151_1037)"/>
<path d="M340.746 221.297V194.389C340.746 193.718 340.202 193.163 339.518 193.163H324.192C315.049 193.163 307.637 185.768 307.637 176.646V161.353C307.637 160.682 307.092 160.128 306.409 160.128H279.451C278.778 160.128 278.223 160.671 278.223 161.353V188.261C278.223 188.933 278.767 189.487 279.451 189.487H294.777C303.92 189.487 311.332 196.883 311.332 206.005V221.297C311.332 221.969 311.877 222.523 312.561 222.523H339.529C340.202 222.523 340.757 221.979 340.757 221.297H340.746Z" fill="url(#paint2_radial_151_1037)"/>
<path d="M306.419 127.103H279.451C278.773 127.103 278.223 127.652 278.223 128.328V155.236C278.223 155.913 278.773 156.462 279.451 156.462H306.419C307.098 156.462 307.647 155.913 307.647 155.236V128.328C307.647 127.652 307.098 127.103 306.419 127.103Z" fill="url(#paint3_radial_151_1037)"/>
<path d="M372.56 61.053H345.592C344.914 61.053 344.364 61.6017 344.364 62.2785V89.1866C344.364 89.8635 344.914 90.4121 345.592 90.4121H372.56C373.239 90.4121 373.789 89.8635 373.789 89.1866V62.2785C373.789 61.6017 373.239 61.053 372.56 61.053Z" fill="url(#paint4_radial_151_1037)"/>
<path d="M405.628 61.053H378.66C377.982 61.053 377.432 61.6017 377.432 62.2785V89.1866C377.432 89.8635 377.982 90.4121 378.66 90.4121H405.628C406.307 90.4121 406.857 89.8635 406.857 89.1866V62.2785C406.857 61.6017 406.307 61.053 405.628 61.053Z" fill="url(#paint5_radial_151_1037)"/>
<path d="M372.618 193.164H345.65C344.971 193.164 344.422 193.713 344.422 194.389V221.298C344.422 221.974 344.971 222.523 345.65 222.523H372.618C373.296 222.523 373.846 221.974 373.846 221.298V194.389C373.846 193.713 373.296 193.164 372.618 193.164Z" fill="url(#paint6_radial_151_1037)"/>
<path d="M405.714 193.164H378.746C378.068 193.164 377.518 193.713 377.518 194.389V221.298C377.518 221.974 378.068 222.523 378.746 222.523H405.714C406.393 222.523 406.943 221.974 406.943 221.298V194.389C406.943 193.713 406.393 193.164 405.714 193.164Z" fill="url(#paint7_radial_151_1037)"/>
<path d="M927.259 221.297V194.389C927.259 193.718 926.714 193.163 926.031 193.163H910.704C901.562 193.163 894.149 185.768 894.149 176.646V161.353C894.149 160.682 893.605 160.128 892.921 160.128H865.953C865.28 160.128 864.725 160.671 864.725 161.353V188.261C864.725 188.933 865.269 189.487 865.953 189.487H881.279C890.422 189.487 897.834 196.883 897.834 206.005V221.297C897.834 221.969 898.379 222.523 899.062 222.523H926.031C926.703 222.523 927.259 221.979 927.259 221.297Z" fill="url(#paint8_radial_151_1037)"/>
<path d="M930.935 221.297V194.389C930.935 193.718 931.479 193.163 932.163 193.163H947.489C956.632 193.163 964.044 185.768 964.044 176.646V161.353C964.044 160.682 964.589 160.128 965.272 160.128H992.241C992.914 160.128 993.469 160.671 993.469 161.353V188.261C993.469 188.933 992.924 189.487 992.241 189.487H976.914C967.772 189.487 960.359 196.883 960.359 206.005V221.297C960.359 221.969 959.815 222.523 959.131 222.523H932.163C931.49 222.523 930.935 221.979 930.935 221.297Z" fill="url(#paint9_radial_151_1037)"/>
<path d="M892.932 61.053H865.964C865.286 61.053 864.736 61.6017 864.736 62.2785V89.1866C864.736 89.8635 865.286 90.4121 865.964 90.4121H892.932C893.611 90.4121 894.161 89.8635 894.161 89.1866V62.2785C894.161 61.6017 893.611 61.053 892.932 61.053Z" fill="url(#paint10_radial_151_1037)"/>
<path d="M992.239 61.053H965.271C964.592 61.053 964.042 61.6017 964.042 62.2785V89.1866C964.042 89.8635 964.592 90.4121 965.271 90.4121H992.239C992.917 90.4121 993.467 89.8635 993.467 89.1866V62.2785C993.467 61.6017 992.917 61.053 992.239 61.053Z" fill="url(#paint11_radial_151_1037)"/>
<path d="M892.932 127.103H865.964C865.286 127.103 864.736 127.652 864.736 128.328V155.236C864.736 155.913 865.286 156.462 865.964 156.462H892.932C893.611 156.462 894.161 155.913 894.161 155.236V128.328C894.161 127.652 893.611 127.103 892.932 127.103Z" fill="url(#paint12_radial_151_1037)"/>
<path d="M992.239 127.103H965.271C964.592 127.103 964.042 127.652 964.042 128.328V155.236C964.042 155.913 964.592 156.462 965.271 156.462H992.239C992.917 156.462 993.467 155.913 993.467 155.236V128.328C993.467 127.652 992.917 127.103 992.239 127.103Z" fill="url(#paint13_radial_151_1037)"/>
<path d="M992.239 94.0749H965.271C964.592 94.0749 964.042 94.6236 964.042 95.3004V122.209C964.042 122.885 964.592 123.434 965.271 123.434H992.239C992.917 123.434 993.467 122.885 993.467 122.209V95.3004C993.467 94.6236 992.917 94.0749 992.239 94.0749Z" fill="url(#paint14_radial_151_1037)"/>
<path d="M892.932 94.0749H865.964C865.286 94.0749 864.736 94.6236 864.736 95.3004V122.209C864.736 122.885 865.286 123.434 865.964 123.434H892.932C893.611 123.434 894.161 122.885 894.161 122.209V95.3004C894.161 94.6236 893.611 94.0749 892.932 94.0749Z" fill="url(#paint15_radial_151_1037)"/>
<path d="M424.744 188.261V161.353C424.744 160.681 425.289 160.127 425.972 160.127H441.299C450.441 160.127 457.854 152.731 457.854 143.609V128.317C457.854 127.645 458.398 127.091 459.082 127.091H486.05C486.723 127.091 487.278 127.635 487.278 128.317V155.225C487.278 155.896 486.734 156.45 486.05 156.45H470.724C461.581 156.45 454.169 163.846 454.169 172.968V188.261C454.169 188.932 453.624 189.486 452.941 189.486H425.972C425.299 189.486 424.744 188.943 424.744 188.261Z" fill="url(#paint16_radial_151_1037)"/>
<path d="M520.368 139.944V143.61C520.368 152.732 527.78 160.128 536.922 160.128H552.249C552.932 160.128 553.477 160.672 553.477 161.354V188.262C553.477 188.944 552.932 189.487 552.249 189.487H525.281C524.597 189.487 524.052 188.944 524.052 188.262V172.97C524.052 163.847 516.64 156.452 507.498 156.452H492.171C491.488 156.452 490.943 155.908 490.943 155.226V128.318C490.943 127.636 491.488 127.092 492.171 127.092H507.498C516.64 127.092 524.052 119.697 524.052 110.575V106.909C524.052 97.7866 516.64 90.3908 507.498 90.3908H492.171C491.488 90.3908 490.943 89.8473 490.943 89.1653V62.2785C490.943 61.5965 491.488 61.053 492.171 61.053H519.139C519.823 61.053 520.368 61.5965 520.368 62.2785V77.5708C520.368 86.693 527.78 94.0887 536.922 94.0887H552.249C552.932 94.0887 553.477 94.6322 553.477 95.3142V122.222C553.477 122.904 552.932 123.448 552.249 123.448H536.922C527.78 123.448 520.368 130.844 520.368 139.966V139.944Z" fill="url(#paint17_radial_151_1037)"/>
<path d="M452.941 193.164H425.972C425.294 193.164 424.744 193.713 424.744 194.389V221.298C424.744 221.974 425.294 222.523 425.972 222.523H452.941C453.619 222.523 454.169 221.974 454.169 221.298V194.389C454.169 193.713 453.619 193.164 452.941 193.164Z" fill="url(#paint18_radial_151_1037)"/>
<path d="M452.941 94.0749H425.972C425.294 94.0749 424.744 94.6236 424.744 95.3004V122.209C424.744 122.885 425.294 123.434 425.972 123.434H452.941C453.619 123.434 454.169 122.885 454.169 122.209V95.3004C454.169 94.6236 453.619 94.0749 452.941 94.0749Z" fill="url(#paint19_radial_151_1037)"/>
<path d="M452.941 61.053H425.972C425.294 61.053 424.744 61.6017 424.744 62.2785V89.1866C424.744 89.8635 425.294 90.4121 425.972 90.4121H452.941C453.619 90.4121 454.169 89.8635 454.169 89.1866V62.2785C454.169 61.6017 453.619 61.053 452.941 61.053Z" fill="url(#paint20_radial_151_1037)"/>
<path d="M486.037 61.053H459.069C458.39 61.053 457.84 61.6017 457.84 62.2785V89.1866C457.84 89.8635 458.39 90.4121 459.069 90.4121H486.037C486.715 90.4121 487.265 89.8635 487.265 89.1866V62.2785C487.265 61.6017 486.715 61.053 486.037 61.053Z" fill="url(#paint21_radial_151_1037)"/>
<path d="M552.236 193.164H525.267C524.589 193.164 524.039 193.713 524.039 194.389V221.298C524.039 221.974 524.589 222.523 525.267 222.523H552.236C552.914 222.523 553.464 221.974 553.464 221.298V194.389C553.464 193.713 552.914 193.164 552.236 193.164Z" fill="url(#paint22_radial_151_1037)"/>
<path d="M454.169 144.431V128.328C454.169 127.657 453.624 127.103 452.941 127.103H425.972C425.299 127.103 424.744 127.646 424.744 128.328V155.236C424.744 155.908 425.289 156.462 425.972 156.462H442.111C448.775 156.462 454.169 151.07 454.169 144.431Z" fill="url(#paint23_radial_151_1037)"/>
<path d="M718.071 188.26V161.352C718.071 160.681 718.616 160.127 719.3 160.127H734.626C743.769 160.127 751.181 152.731 751.181 143.609V128.317C751.181 127.645 751.726 127.091 752.409 127.091H779.377C780.05 127.091 780.606 127.634 780.606 128.317V155.225C780.606 155.896 780.061 156.45 779.377 156.45H764.051C754.908 156.45 747.496 163.846 747.496 172.968V188.26C747.496 188.932 746.952 189.486 746.268 189.486H719.3C718.627 189.486 718.071 188.942 718.071 188.26Z" fill="url(#paint24_radial_151_1037)"/>
<path d="M746.268 193.164H719.3C718.621 193.164 718.071 193.712 718.071 194.389V221.297C718.071 221.974 718.621 222.523 719.3 222.523H746.268C746.946 222.523 747.496 221.974 747.496 221.297V194.389C747.496 193.712 746.946 193.164 746.268 193.164Z" fill="url(#paint25_radial_151_1037)"/>
<path d="M746.268 94.0747H719.3C718.621 94.0747 718.071 94.6234 718.071 95.3002V122.208C718.071 122.885 718.621 123.434 719.3 123.434H746.268C746.946 123.434 747.496 122.885 747.496 122.208V95.3002C747.496 94.6234 746.946 94.0747 746.268 94.0747Z" fill="url(#paint26_radial_151_1037)"/>
<path d="M746.268 61.053H719.3C718.622 61.053 718.072 61.6017 718.072 62.2785V89.1866C718.072 89.8635 718.622 90.4121 719.3 90.4121H746.268C746.947 90.4121 747.496 89.8635 747.496 89.1866V62.2785C747.496 61.6017 746.947 61.053 746.268 61.053Z" fill="url(#paint27_radial_151_1037)"/>
<path d="M779.364 61.0527H752.396C751.718 61.0527 751.168 61.6014 751.168 62.2783V89.1864C751.168 89.8632 751.718 90.4119 752.396 90.4119H779.364C780.043 90.4119 780.593 89.8632 780.593 89.1864V62.2783C780.593 61.6014 780.043 61.0527 779.364 61.0527Z" fill="url(#paint28_radial_151_1037)"/>
<path d="M812.381 61.0527H785.412C784.734 61.0527 784.184 61.6014 784.184 62.2783V89.1864C784.184 89.8632 784.734 90.4119 785.412 90.4119H812.381C813.059 90.4119 813.609 89.8632 813.609 89.1864V62.2783C813.609 61.6014 813.059 61.0527 812.381 61.0527Z" fill="url(#paint29_radial_151_1037)"/>
<path d="M845.729 61.0527H818.761C818.083 61.0527 817.533 61.6014 817.533 62.2783V89.1864C817.533 89.8632 818.083 90.4119 818.761 90.4119H845.729C846.408 90.4119 846.957 89.8632 846.957 89.1864V62.2783C846.957 61.6014 846.408 61.0527 845.729 61.0527Z" fill="url(#paint30_radial_151_1037)"/>
<path d="M812.381 127.103H785.412C784.734 127.103 784.184 127.651 784.184 128.328V155.236C784.184 155.913 784.734 156.462 785.412 156.462H812.381C813.059 156.462 813.609 155.913 813.609 155.236V128.328C813.609 127.651 813.059 127.103 812.381 127.103Z" fill="url(#paint31_radial_151_1037)"/>
<path d="M845.729 127.103H818.761C818.083 127.103 817.533 127.651 817.533 128.328V155.236C817.533 155.913 818.083 156.462 818.761 156.462H845.729C846.408 156.462 846.957 155.913 846.957 155.236V128.328C846.957 127.651 846.408 127.103 845.729 127.103Z" fill="url(#paint32_radial_151_1037)"/>
<path d="M747.496 144.43V128.328C747.496 127.657 746.952 127.103 746.268 127.103H719.3C718.627 127.103 718.071 127.646 718.071 128.328V155.236C718.071 155.908 718.616 156.462 719.3 156.462H735.438C742.103 156.462 747.496 151.069 747.496 144.43Z" fill="url(#paint33_radial_151_1037)"/>
<path d="M633.782 62.2787V89.1869C633.782 89.8582 633.238 90.4124 632.554 90.4124H617.227C608.085 90.4124 600.673 97.8081 600.673 106.93V122.223C600.673 122.894 600.128 123.448 599.444 123.448H572.476C571.803 123.448 571.248 122.905 571.248 122.223V95.3145C571.248 94.6431 571.793 94.0889 572.476 94.0889H587.803C596.945 94.0889 604.357 86.6932 604.357 77.5711V62.2787C604.357 61.6074 604.902 61.0532 605.586 61.0532H632.554C633.227 61.0532 633.782 61.5967 633.782 62.2787Z" fill="url(#paint34_radial_151_1037)"/>
<path d="M633.782 128.328V155.236C633.782 155.908 633.237 156.462 632.554 156.462H617.227C608.085 156.462 600.673 163.858 600.673 172.98V188.272C600.673 188.944 600.128 189.498 599.444 189.498H572.476C571.803 189.498 571.248 188.954 571.248 188.272V161.364C571.248 160.693 571.793 160.139 572.476 160.139H587.803C596.945 160.139 604.357 152.743 604.357 143.621V128.328C604.357 127.657 604.902 127.103 605.586 127.103H632.554C633.227 127.103 633.782 127.646 633.782 128.328Z" fill="url(#paint35_radial_151_1037)"/>
<path d="M637.464 62.2785V89.1866C637.464 89.858 638.009 90.4121 638.692 90.4121H654.019C663.161 90.4121 670.573 97.8079 670.573 106.93V122.222C670.573 122.894 671.118 123.448 671.802 123.448H698.77C699.443 123.448 699.998 122.904 699.998 122.222V95.3142C699.998 94.6429 699.453 94.0887 698.77 94.0887H683.443C674.301 94.0887 666.889 86.693 666.889 77.5708V62.2785C666.889 61.6071 666.344 61.053 665.66 61.053H638.692C638.019 61.053 637.464 61.5965 637.464 62.2785Z" fill="url(#paint36_radial_151_1037)"/>
<path d="M637.464 128.328V155.236C637.464 155.908 638.009 156.462 638.692 156.462H654.019C663.161 156.462 670.573 163.858 670.573 172.98V188.272C670.573 188.944 671.118 189.498 671.802 189.498H698.77C699.443 189.498 699.998 188.954 699.998 188.272V161.364C699.998 160.693 699.453 160.139 698.77 160.139H683.443C674.301 160.139 666.889 152.743 666.889 143.621V128.328C666.889 127.657 666.344 127.103 665.66 127.103H638.692C638.019 127.103 637.464 127.646 637.464 128.328Z" fill="url(#paint37_radial_151_1037)"/>
<path d="M599.462 193.164H572.493C571.815 193.164 571.265 193.713 571.265 194.389V221.298C571.265 221.974 571.815 222.523 572.493 222.523H599.462C600.14 222.523 600.69 221.974 600.69 221.298V194.389C600.69 193.713 600.14 193.164 599.462 193.164Z" fill="url(#paint38_radial_151_1037)"/>
<path d="M698.757 193.164H671.789C671.11 193.164 670.56 193.713 670.56 194.389V221.298C670.56 221.974 671.11 222.523 671.789 222.523H698.757C699.435 222.523 699.985 221.974 699.985 221.298V194.389C699.985 193.713 699.435 193.164 698.757 193.164Z" fill="url(#paint39_radial_151_1037)"/>
<path d="M600.679 144.431V128.328C600.679 127.657 600.134 127.103 599.45 127.103H572.482C571.809 127.103 571.254 127.646 571.254 128.328V155.236C571.254 155.908 571.799 156.462 572.482 156.462H588.62C595.285 156.462 600.679 151.07 600.679 144.431Z" fill="url(#paint40_radial_151_1037)"/>
<path d="M670.846 144.431V128.328C670.846 127.657 671.391 127.103 672.074 127.103H699.043C699.716 127.103 700.271 127.646 700.271 128.328V155.236C700.271 155.908 699.726 156.462 699.043 156.462H682.904C676.24 156.462 670.846 151.07 670.846 144.431Z" fill="url(#paint41_radial_151_1037)"/>
<path d="M1011.27 62.2787V89.1869C1011.27 89.8582 1011.81 90.4124 1012.5 90.4124H1027.82C1036.97 90.4124 1044.38 97.8081 1044.38 106.93V122.223C1044.38 122.894 1044.92 123.448 1045.61 123.448H1072.57C1073.25 123.448 1073.8 122.905 1073.8 122.223V95.3145C1073.8 94.6431 1073.26 94.0889 1072.57 94.0889H1057.25C1048.11 94.0889 1040.69 86.6932 1040.69 77.5711V62.2787C1040.69 61.6074 1040.15 61.0532 1039.47 61.0532H1012.5C1011.82 61.0532 1011.27 61.5967 1011.27 62.2787Z" fill="url(#paint42_radial_151_1037)"/>
<path d="M1077.47 161.353V188.261C1077.47 188.933 1078.01 189.487 1078.7 189.487H1094.02C1103.16 189.487 1110.58 196.883 1110.58 206.005V221.297C1110.58 221.969 1111.12 222.523 1111.81 222.523H1138.77C1139.45 222.523 1140 221.979 1140 221.297V194.389C1140 193.718 1139.46 193.163 1138.77 193.163H1123.45C1114.3 193.163 1106.89 185.768 1106.89 176.646V161.353C1106.89 160.682 1106.35 160.128 1105.66 160.128H1078.7C1078.02 160.128 1077.47 160.671 1077.47 161.353Z" fill="url(#paint43_radial_151_1037)"/>
<path d="M1138.76 61.053H1111.79C1111.11 61.053 1110.56 61.6017 1110.56 62.2785V89.1866C1110.56 89.8635 1111.11 90.4121 1111.79 90.4121H1138.76C1139.44 90.4121 1139.99 89.8635 1139.99 89.1866V62.2785C1139.99 61.6017 1139.44 61.053 1138.76 61.053Z" fill="url(#paint44_radial_151_1037)"/>
<path d="M1039.47 127.103H1012.5C1011.82 127.103 1011.27 127.652 1011.27 128.328V155.236C1011.27 155.913 1011.82 156.462 1012.5 156.462H1039.47C1040.14 156.462 1040.69 155.913 1040.69 155.236V128.328C1040.69 127.652 1040.14 127.103 1039.47 127.103Z" fill="url(#paint45_radial_151_1037)"/>
<path d="M1040.69 106.106V122.209C1040.69 122.88 1040.15 123.434 1039.47 123.434H1012.5C1011.82 123.434 1011.27 122.891 1011.27 122.209V95.3004C1011.27 94.6291 1011.81 94.0749 1012.5 94.0749H1028.64C1035.3 94.0749 1040.69 99.4672 1040.69 106.106Z" fill="url(#paint46_radial_151_1037)"/>
<path d="M1139.99 161.353V188.261C1139.99 188.933 1139.44 189.487 1138.76 189.487H1122.62C1115.96 189.487 1110.56 184.095 1110.56 177.456V161.353C1110.56 160.682 1111.11 160.128 1111.79 160.128H1138.76C1139.43 160.128 1139.99 160.671 1139.99 161.353Z" fill="url(#paint47_radial_151_1037)"/>
<path d="M1039.47 160.128H1012.5C1011.82 160.128 1011.27 160.676 1011.27 161.353V188.261C1011.27 188.938 1011.82 189.487 1012.5 189.487H1039.47C1040.14 189.487 1040.69 188.938 1040.69 188.261V161.353C1040.69 160.676 1040.14 160.128 1039.47 160.128Z" fill="url(#paint48_radial_151_1037)"/>
<path d="M1039.47 193.164H1012.5C1011.82 193.164 1011.27 193.713 1011.27 194.389V221.298C1011.27 221.974 1011.82 222.523 1012.5 222.523H1039.47C1040.14 222.523 1040.69 221.974 1040.69 221.298V194.389C1040.69 193.713 1040.14 193.164 1039.47 193.164Z" fill="url(#paint49_radial_151_1037)"/>
<path d="M1138.76 127.103H1111.79C1111.11 127.103 1110.56 127.652 1110.56 128.328V155.236C1110.56 155.913 1111.11 156.462 1111.79 156.462H1138.76C1139.44 156.462 1139.99 155.913 1139.99 155.236V128.328C1139.99 127.652 1139.44 127.103 1138.76 127.103Z" fill="url(#paint50_radial_151_1037)"/>
<path d="M1138.76 193.164H1111.79C1111.11 193.164 1110.56 193.713 1110.56 194.389V221.298C1110.56 221.974 1111.11 222.523 1111.79 222.523H1138.76C1139.44 222.523 1139.99 221.974 1139.99 221.298V194.389C1139.99 193.713 1139.44 193.164 1138.76 193.164Z" fill="url(#paint51_radial_151_1037)"/>
<path d="M1072.56 127.103H1045.59C1044.92 127.103 1044.37 127.652 1044.37 128.328V155.236C1044.37 155.913 1044.92 156.462 1045.59 156.462H1072.56C1073.24 156.462 1073.79 155.913 1073.79 155.236V128.328C1073.79 127.652 1073.24 127.103 1072.56 127.103Z" fill="url(#paint52_radial_151_1037)"/>
<path d="M1105.66 127.103H1078.7C1078.02 127.103 1077.47 127.652 1077.47 128.328V155.236C1077.47 155.913 1078.02 156.462 1078.7 156.462H1105.66C1106.34 156.462 1106.89 155.913 1106.89 155.236V128.328C1106.89 127.652 1106.34 127.103 1105.66 127.103Z" fill="url(#paint53_radial_151_1037)"/>
<path d="M1138.76 94.0749H1111.79C1111.11 94.0749 1110.56 94.6236 1110.56 95.3004V122.209C1110.56 122.885 1111.11 123.434 1111.79 123.434H1138.76C1139.44 123.434 1139.99 122.885 1139.99 122.209V95.3004C1139.99 94.6236 1139.44 94.0749 1138.76 94.0749Z" fill="url(#paint54_radial_151_1037)"/>
<path d="M72.7383 82.1885C70.3222 82.6743 65.554 83.9782 61.2716 87.9666C54.816 93.962 54.049 101.734 53.8828 103.792C53.576 107.436 54.1385 110.427 54.637 112.319C55.404 109.571 56.8358 106.515 59.6609 104.547C63.2402 102.054 65.9503 103.524 69.3251 100.763C70.7185 99.6251 70.3094 99.3438 74.0678 92.7092C77.2125 87.1613 78.478 85.64 77.7622 84.1827C77.4809 83.6075 76.5605 82.3675 72.7383 82.1885Z" fill="#DF0022"/>
<path d="M54.6504 114.237C55.5068 114.237 56.2611 113.662 56.4912 112.844C57.3604 109.75 58.7922 107.501 60.7608 106.133C62.1414 105.174 63.3558 104.944 64.7492 104.688C66.4622 104.369 68.4181 103.998 70.5401 102.259C71.6778 101.326 72.023 100.649 72.8539 99.0124C73.4036 97.9386 74.2217 96.3279 75.7302 93.6689C76.331 92.5951 76.8679 91.6747 77.3409 90.8822C79.5141 87.1494 80.5112 85.4492 79.4885 83.3527C78.5681 81.4736 76.331 80.4509 72.8283 80.2847C72.6749 80.2847 72.5215 80.2847 72.3681 80.3231C69.0828 80.975 64.2635 82.5857 59.9682 86.5742C55.3662 90.8438 52.5283 96.9159 51.9786 103.64C51.7229 106.708 51.9914 109.789 52.7968 112.818C53.0141 113.649 53.7683 114.237 54.6376 114.25H54.6504V114.237ZM72.8922 84.1197C75.1805 84.2604 75.9475 84.8101 76.0497 85.0274C76.0497 85.462 75.0782 87.1494 74.0428 88.9391C73.5698 89.7444 73.0329 90.6776 72.4065 91.7642C70.8597 94.4999 70.016 96.1617 69.4535 97.2611C68.6737 98.7951 68.6226 98.8718 68.124 99.2809C66.7434 100.406 65.5546 100.636 64.0461 100.917C62.4482 101.211 60.633 101.556 58.5749 102.988C57.501 103.729 56.5551 104.65 55.7242 105.724C55.7242 105.136 55.7497 104.548 55.8009 103.96C56.2866 98.1815 58.6899 93.0042 62.5888 89.3865C66.1171 86.1012 70.1055 84.7206 72.8922 84.1325V84.1197Z" fill="black"/>
<path d="M73.9794 73.0871C70.4512 74.6339 69.3135 78.1621 69.0578 78.9674C68.9044 79.4404 67.3832 84.4515 70.758 88.6317C72.7778 91.1372 76.2293 92.9397 79.847 92.3261C84.9603 91.4568 88.3991 86.1006 87.811 81.3324C87.2997 77.2417 83.9888 74.9534 83.3624 74.506C82.4548 73.8796 78.2874 71.1951 73.9794 73.0871Z" fill="#DF0022"/>
<path d="M78.4524 94.3584C79.0277 94.3584 79.6029 94.3073 80.1654 94.2178C85.9946 93.2207 90.456 87.0975 89.7018 81.1021C89.3055 77.919 87.4392 75.0172 84.4351 72.9462C83.08 72.0003 78.2607 69.124 73.1857 71.3483C70.3989 72.5755 68.2769 75.0683 67.2031 78.392C66.9857 79.0439 65.2472 84.9115 69.2356 89.8459C71.5366 92.6966 75.0137 94.3712 78.4269 94.3712L78.4524 94.3584ZM77.1741 74.3524C79.5135 74.3524 81.5588 75.6052 82.2619 76.091C83.4763 76.9347 85.56 78.7627 85.9052 81.575C86.3526 85.1672 83.7192 89.7308 79.5262 90.4339C76.3815 90.9708 73.6331 89.1428 72.2397 87.4298C69.5169 84.055 70.7185 80.0155 70.8719 79.568C71.6133 77.2798 72.9556 75.6435 74.7453 74.8638C75.5634 74.5058 76.3815 74.3652 77.1741 74.3652V74.3524Z" fill="black"/>
<path d="M186.345 162.673C190.282 170.906 192.315 180.685 191.139 189.838C167.08 270.859 33.7624 232.33 24.2899 206.968C-8.95971 164.258 11.238 106.81 49.6138 133.067C47.121 133.949 39.4254 136.621 41.0233 136.084C52.2855 132.325 71.1027 123.927 90.3417 127.378C95.1482 133.054 96.222 133.885 96.1965 133.91C81.0354 121.779 77.0214 93.2593 81.6106 77.2673C84.538 67.0406 90.4951 55.5611 100.926 51.3426C104.57 49.8725 108.724 49.5785 112.546 48.7603C108.763 49.4762 104.672 48.3001 101.847 45.6923C100.428 44.3756 99.2773 42.3942 99.9036 40.5662C100.466 38.9427 102.23 38.0479 103.905 37.6899C108.417 36.7056 113.045 38.3035 117.391 39.8631C115.87 39.6713 114.311 39.454 112.955 38.7254C111.6 37.9967 110.476 36.6289 110.501 35.0949C110.514 33.8165 111.332 32.6277 112.406 31.9118C113.48 31.196 114.771 30.9019 116.049 30.7741C119.68 30.4034 123.438 31.311 126.493 33.318C128.5 34.6347 130.2 36.4244 131.453 38.4825C132.003 39.3901 132.655 40.4511 132.744 41.5249C132.821 42.5348 132.578 43.5958 132.642 44.6185C135.262 44.5802 137.845 44.2094 140.491 44.3373C143.15 44.4651 145.796 44.823 148.404 45.3855C153.619 46.5105 158.669 48.4663 163.271 51.1892C172.066 56.4048 179.25 64.6501 181.5 74.7873C183.775 88.44 184.555 122.802 170.366 131.149C169.548 131.801 167.898 132.044 167.541 133.003C167.541 133.207 181.359 152.216 186.37 162.66" fill="#FFD900"/>
<path d="M176.31 145.876C175.313 146.63 175.045 147.218 175.032 147.755C175.019 149.11 176.758 149.621 176.732 150.976C176.707 152.702 173.843 154.07 171.427 154.952C173.869 156.537 177.602 159.337 180.9 163.862C182.728 166.368 190.5 177.003 187.342 186.604C185.502 192.203 181.424 192.97 180.9 198.914C180.823 199.847 180.529 204.219 183.022 207.581C186.384 202.429 189.132 196.562 191.126 189.851C192.302 180.698 190.283 170.918 186.333 162.686C184.083 157.982 180.043 151.564 176.285 145.889" fill="white"/>
<path d="M41.0233 136.084C43.2988 135.329 45.8813 134.371 48.7192 133.374C45.9708 134.333 40.7552 136.148 40.8063 136.148C40.8063 136.148 40.8827 136.122 41.0233 136.084ZM95.2508 134.486C94.7395 135.279 91.9015 133.668 91.3519 133.451C88.5395 132.339 85.5098 131.418 82.4802 131.278C76.9066 131.022 71.3458 131.866 65.9513 133.221C60.6461 134.563 55.4305 136.072 50.1766 137.657C46.61 138.73 43.0562 139.804 39.4896 140.878C38.8633 141.07 38.1985 141.262 37.5466 141.185C36.8946 141.108 36.2299 140.699 36.0637 140.06C35.8336 139.165 36.6262 138.36 37.3804 137.81C38.467 137.005 39.6047 136.289 40.7935 135.662C41.4199 135.33 43.7082 134.806 43.7082 133.911C43.4269 131.482 18.4737 129.041 13.4882 138.36C12.4911 140.226 13.1047 141.044 11.8775 143.192C11.2639 144.266 10.433 145.237 9.48703 146.094C14.6643 128.363 29.6848 119.415 49.6141 133.055C60.5183 129.232 74.9124 124.848 89.5878 127.251C93.4867 130.472 95.8133 133.63 95.2508 134.486Z" fill="white"/>
<path d="M140.772 44.3751C146.601 48.1974 162.376 51.1503 170.954 65.1354C177.678 76.1035 178.176 90.9067 178.343 96.1223C178.713 107.142 176.642 114.633 179.122 118.787C183.955 104.93 183.098 84.5789 181.462 74.7996C179.199 64.6624 172.028 56.4171 163.233 51.2015C158.643 48.4786 153.581 46.5227 148.366 45.3978C145.86 44.8609 143.316 44.5158 140.759 44.3751" fill="white"/>
<path d="M14.9068 134.971C13.4751 142.986 11.1229 155.821 15.252 169.934C18.1922 179.956 23.4589 187.421 27.7541 192.394C25.9517 183.638 24.3665 172.976 27.4729 171.647C29.7995 170.65 33.4044 175.495 36.5747 178.473C57.2071 197.878 98.1523 174.523 110.194 190.694C114.962 197.098 112.201 205.702 111.894 206.609C108.737 215.98 97.2191 222.333 82.6204 222.806C90.0348 226.117 103.815 231.026 121.277 229.913C151.382 227.996 170.685 209.601 175.85 204.334C167.272 206.085 160.395 204.027 158.797 200.064C158.477 199.259 158.17 197.891 158.797 195.795C162.402 197.674 167.208 199.348 172.526 198.569C180.337 197.418 184.044 190.489 184.721 191.282C185.361 192.036 181.359 197.431 182.395 200.908C182.791 202.225 184.057 202.877 185.591 203.311C151.318 266.193 33.1999 230.77 24.3026 206.954C4.14321 181.055 3.64466 149.762 14.9196 134.971" fill="#E4A02B"/>
<path d="M175.3 144.367C167.029 148.777 153.018 147.639 134.572 146.144C132.169 145.952 127.503 145.415 126.045 142.449C124.869 140.059 126.761 138.077 125.764 136.198C123.974 132.836 115.729 134.92 109.274 134.779C101.463 134.6 95.1095 131.136 89.9067 127.314L90.0345 127.339C83.4511 118.174 80.2041 105.288 79.8589 93.6936C85.6498 110.734 104.058 121.587 109.555 124.834C123.463 133.028 137.256 135.214 146.793 135.636C140.964 136.365 135.761 134.332 133.715 130.523C130.814 125.115 135.582 118.506 136.553 117.164C143.942 106.924 164.447 100.763 176.067 111.769C177.537 113.163 178.802 114.773 179.851 116.512C177.933 123.07 174.916 128.477 170.34 131.174C169.522 131.826 167.873 132.069 167.515 133.028C167.515 133.13 171.107 138.129 175.287 144.38" fill="#E4A02B"/>
<path d="M113.109 240.217C114.669 240.217 116.228 240.191 117.775 240.14C156.892 238.798 183.469 221.093 192.609 190.272C192.635 190.196 192.647 190.119 192.66 190.029C193.823 181.004 192.072 171.059 187.738 162.008C183.661 153.507 173.894 139.509 170.225 134.243C169.97 133.885 169.752 133.565 169.573 133.297C169.65 133.258 169.739 133.22 169.803 133.194C170.264 132.99 170.775 132.773 171.222 132.427C187.393 122.763 184.632 84.3236 182.996 74.5443C180.797 64.6883 173.894 55.7271 164.038 49.8851C159.321 47.0855 154.157 45.0785 148.711 43.9025C146.001 43.3144 143.252 42.9565 140.542 42.8287C138.855 42.752 137.206 42.8542 135.608 42.9565C135.148 42.9821 134.687 43.0204 134.227 43.046C134.266 42.5219 134.304 41.985 134.253 41.4225C134.138 40.0163 133.396 38.7763 132.783 37.7792C131.377 35.4399 129.497 33.484 127.311 32.0523C123.937 29.8407 119.884 28.8564 115.87 29.2655C114.081 29.4572 112.662 29.9047 111.537 30.6589C109.939 31.7199 108.967 33.3817 108.954 35.0947C108.954 35.4015 108.98 35.7083 109.031 36.0023C107.241 35.785 105.401 35.7978 103.573 36.1941C100.965 36.7566 99.0985 38.1755 98.4465 40.0675C97.7051 42.2406 98.5743 44.759 100.799 46.8171C101.668 47.6224 102.652 48.3127 103.713 48.8624C102.576 49.1437 101.451 49.476 100.364 49.9235C88.0664 54.8962 82.4161 68.9196 80.1535 76.8453C76.5869 89.3091 78.1081 110.657 86.9287 125.345C73.2377 123.875 60.237 127.749 49.8441 131.366C36.5877 122.571 24.0983 122.763 15.4823 131.916C1.89356 146.361 1.67626 180.25 22.9478 207.734C28.8665 222.589 72.4962 240.23 113.109 240.23V240.217ZM189.63 189.518C178.394 227.165 144.301 236.152 117.66 237.072C74.5672 238.542 30.5284 219.303 25.7218 206.43C25.6707 206.29 25.594 206.149 25.4917 206.021C5.03828 179.739 4.9488 147.563 17.6938 134.013C24.8653 126.394 34.8747 125.946 46.1241 132.658L41.8033 134.166C41.3815 134.319 41.0107 134.447 40.6784 134.575C40.6272 134.588 40.5761 134.613 40.5378 134.626L40.3844 134.677V134.703C39.4384 135.138 39.0038 135.623 39.3617 136.646C39.4128 136.799 39.8986 138.078 41.5093 137.541C43.0944 137.017 44.8202 136.39 46.6738 135.726C57.9615 131.686 73.3399 126.202 89.1786 128.733C90.9555 131.136 92.9752 133.297 95.2507 135.112C95.6981 135.47 96.3117 135.547 96.8486 135.316C97.3727 135.074 97.7179 134.562 97.7434 133.987C97.769 133.297 97.3727 132.913 97.1682 132.696C95.9793 131.52 94.0746 129.398 91.5307 126.394C91.3645 126.202 91.16 126.061 90.9299 125.959C81.2784 112.166 79.5015 90.2167 83.0937 77.689C85.2029 70.313 90.4058 57.2611 101.502 52.7741C103.841 51.8282 106.538 51.3808 109.133 50.9461C110.361 50.7416 111.639 50.5243 112.866 50.2686C113.684 50.0896 114.221 49.2843 114.055 48.4661C113.889 47.6352 113.084 47.1111 112.265 47.2645C108.954 47.8909 105.362 46.8682 102.895 44.58C101.936 43.6979 100.965 42.2406 101.361 41.0773C101.796 39.8246 103.675 39.326 104.237 39.1982C106.564 38.6996 109.018 38.9809 111.396 39.5561C111.665 39.7479 111.933 39.9268 112.24 40.093C113.863 40.9623 115.64 41.1924 117.213 41.3969C117.992 41.4992 118.721 41.0006 118.9 40.2336C119.079 39.4666 118.67 38.6996 117.928 38.4312C116.356 37.8687 114.643 37.2423 112.841 36.7566C112.38 36.3091 112.048 35.7339 112.048 35.1331C112.048 34.4555 112.534 33.7013 113.262 33.2156C113.966 32.7426 114.937 32.4486 116.215 32.3207C119.475 31.9756 122.927 32.8193 125.662 34.6217C127.465 35.7978 129.012 37.4213 130.149 39.3004C130.648 40.1314 131.172 41.0006 131.223 41.6782C131.261 42.0744 131.223 42.5346 131.172 43.0204C131.121 43.5701 131.07 44.1326 131.108 44.7334C131.159 45.5515 131.824 46.1779 132.642 46.1779C132.642 46.1779 132.655 46.1779 132.668 46.1779C133.729 46.1651 134.777 46.0884 135.825 46.0245C137.41 45.9222 138.906 45.82 140.414 45.8967C142.958 46.0117 145.528 46.3569 148.084 46.9066C153.211 48.0059 158.055 49.8979 162.491 52.5313C171.631 57.9386 178.01 66.1839 180.005 75.1451C182.561 90.5235 182.152 122.456 169.599 129.858C169.535 129.896 169.471 129.935 169.42 129.986C169.267 130.101 168.909 130.267 168.589 130.408C167.732 130.778 166.556 131.303 166.109 132.504C166.045 132.683 166.007 132.875 166.02 133.079C166.02 133.412 166.591 134.392 167.732 136.02C171.363 141.235 181.027 155.092 185.003 163.363C189.068 171.839 190.717 181.145 189.669 189.544L189.63 189.518Z" fill="black"/>
<path d="M193.03 116.96C193.49 119.964 189.54 122.815 187.163 124.54C184.44 126.509 181.461 128.018 174.469 130.319C167.911 132.479 164.626 133.553 161.967 133.821C154.412 134.588 148.8 132.632 144.338 131.073C138.228 128.938 136.719 127.097 136.004 125.959C135.889 125.78 133.268 121.511 134.776 118.571C137.039 114.122 145.975 118.008 160.829 116.206C174.392 114.557 182.97 109.367 189.911 113.368C190.742 113.854 192.736 115.03 193.043 116.973" fill="#FF1A46"/>
<path d="M158.58 135.534C159.705 135.534 160.881 135.483 162.121 135.355C164.946 135.074 168.295 133.975 174.955 131.776C182.357 129.347 185.374 127.736 188.071 125.78C190.73 123.863 195.166 120.654 194.565 116.73C194.156 114.032 191.548 112.524 190.692 112.038C185.655 109.136 180.107 110.504 173.076 112.217C169.446 113.112 165.329 114.109 160.651 114.684C154.412 115.439 149.273 115.183 145.132 114.966C139.341 114.672 135.16 114.454 133.409 117.88C131.53 121.562 134.381 126.253 134.713 126.777C135.672 128.312 137.589 130.344 143.84 132.53C147.752 133.898 152.456 135.534 158.58 135.534ZM183.929 113.419C185.847 113.419 187.56 113.777 189.158 114.697C189.694 115.004 191.343 115.963 191.535 117.203C191.855 119.274 188.224 121.894 186.281 123.3C183.814 125.077 181.027 126.56 173.996 128.874C167.554 130.996 164.319 132.057 161.814 132.313C154.591 133.041 149.197 131.149 144.85 129.641C138.804 127.532 137.717 125.806 137.308 125.154C136.707 124.208 135.224 121.089 136.145 119.274C136.95 117.688 139.724 117.765 144.965 118.034C149.222 118.251 154.515 118.519 161.008 117.74C165.866 117.152 170.085 116.116 173.792 115.209C177.755 114.237 181.053 113.432 183.916 113.432L183.929 113.419Z" fill="black"/>
<path d="M199.102 121.319C202.209 119.439 202.58 113.815 198.821 110.99C197.095 109.328 192.647 108.599 188.352 108.101C187.533 108.011 185.322 107.986 182.343 107.449C180.809 107.167 179.569 106.861 178.739 106.643C175.389 103.844 165.687 97.0557 159.423 98.9477C157.032 99.6763 154.77 101.658 152.775 105.608C148.186 113.393 145.604 111.079 137.998 113.751C133.792 115.055 132.309 120.564 137.141 121.804C141.679 123.85 156.802 128.835 157.889 128.631C170.301 130.523 178.355 117.675 187.738 116.883C189.809 117.177 195.178 122.674 199.102 121.331" fill="#FF1A46"/>
<path d="M198.297 121.498C198.578 120.092 199.013 118.277 198.77 116.398C198.361 113.278 194.935 112.601 192.417 112.09C189.502 111.489 183.839 111.156 178.33 112.575C168.934 114.991 167.106 116.385 166.773 115.886C166.134 114.928 170.813 112.358 175.147 110.926C177.243 110.236 178.982 108.689 181.257 107.245C181.602 107.321 181.96 107.385 182.343 107.449C185.322 107.986 187.533 108.011 188.352 108.101C192.647 108.599 197.095 109.328 198.821 110.99C202.592 113.815 202.209 119.439 199.102 121.319C198.847 121.408 198.578 121.473 198.297 121.498Z" fill="white"/>
<path d="M178.803 108.894C176.809 109.047 173.562 106.836 170.034 104.931C166.8 103.18 164.179 101.774 161.226 102.157C159.858 102.336 156.471 103.193 154.029 103.397C155.691 100.879 157.506 99.511 159.411 98.9358C160.152 98.7057 160.945 98.6034 161.776 98.6034C167.886 98.6034 175.773 104.164 178.726 106.631C179.148 106.746 179.672 106.887 180.299 107.028C180.158 108.025 179.864 108.805 178.803 108.894Z" fill="white"/>
<path d="M160.369 130.331C166.863 130.331 172.194 126.765 176.962 123.582C180.644 121.115 184.134 118.788 187.636 118.405C188.109 118.571 189.183 119.261 189.989 119.785C192.648 121.511 196.304 123.876 199.602 122.764L199.896 122.623C201.749 121.498 202.938 119.363 203.053 116.883C203.194 114.109 201.979 111.476 199.806 109.801C197.697 107.858 193.133 107.091 188.518 106.554C188.288 106.529 187.956 106.503 187.547 106.478C186.422 106.401 184.735 106.299 182.6 105.915C181.526 105.723 180.465 105.493 179.442 105.212C177.295 103.461 166.531 95.1516 158.963 97.4398C155.934 98.3602 153.454 100.789 151.396 104.88C148.545 109.712 146.883 110.044 143.24 110.773C141.706 111.08 139.801 111.463 137.474 112.269C134.598 113.163 132.514 115.797 132.578 118.532C132.63 120.795 134.138 122.546 136.618 123.224C139.75 124.605 154.246 129.782 157.647 130.101C158.567 130.255 159.475 130.319 160.357 130.319L160.369 130.331ZM187.777 115.311H187.611C183.252 115.694 179.366 118.29 175.262 121.025C170.072 124.489 164.703 128.082 158.12 127.084L157.851 127.046L157.736 127.072C155.78 126.829 142.089 122.342 137.768 120.386L137.513 120.297C136.298 119.99 135.672 119.363 135.646 118.468C135.621 117.292 136.656 115.746 138.433 115.196C140.606 114.429 142.319 114.097 143.828 113.79C147.688 113.023 150.488 112.46 154.08 106.363C155.793 102.975 157.659 101.058 159.845 100.393C164.69 98.9227 173.204 104.023 177.729 107.807L177.985 108.024L178.305 108.114C179.519 108.446 180.772 108.728 182.037 108.958C184.338 109.367 186.205 109.495 187.33 109.571C187.675 109.597 187.956 109.61 188.148 109.635C190.321 109.891 196.112 110.556 197.735 112.115L197.876 112.23C199.282 113.278 200.062 114.979 199.972 116.756C199.908 118.111 199.32 119.312 198.426 119.926C196.546 120.424 193.709 118.584 191.638 117.241C190.142 116.27 188.966 115.516 187.918 115.362L187.751 115.337L187.777 115.311Z" fill="black"/>
<path d="M112.687 181.094C112.175 177.707 110.526 170.075 104.301 163.326C103.521 162.482 99.7115 158.455 93.2175 155.515C87.3755 152.869 81.623 152.626 70.3353 152.242C67.9192 152.166 61.3741 152.281 48.3095 152.524C44.9858 152.587 28.3674 151.437 26.8462 158.212C26.0792 161.625 33.4935 168.976 37.597 168.682C37.3797 168.528 33.583 167.697 31.2436 168.017C31.0647 168.043 28.9554 168.95 28.2651 170.996C27.0379 174.575 31.1669 178.717 33.2379 180.8C34.6057 182.168 36.8172 184.341 40.486 185.492C42.6848 186.182 44.3978 186.54 45.6761 186.489C43.1194 185.134 40.1153 184.968 36.651 185.633C36.0758 185.748 35.5389 186.336 35.2321 187.051C33.9921 189.928 39.1566 194.67 40.9207 196.294C43.4646 198.633 52.055 205.945 68.7757 209.231C74.835 210.42 79.2325 211.289 85.2663 210.368C88.9095 209.819 97.7556 208.336 104.735 200.845C106.436 199.017 110.871 193.776 112.265 185.927C112.61 183.958 112.687 182.283 112.687 181.094Z" fill="#FBDF46"/>
<path d="M111.664 188.546C110.679 186.693 109.273 184.648 107.292 182.462C106.295 186.833 104.543 189.953 102.843 192.177C92.0922 206.149 67.3692 204.475 52.2464 198.147C45.2539 195.219 38.5937 190.579 39.169 189.045C39.7954 187.383 48.9483 189.313 49.1145 188.483C49.2679 187.703 41.1121 187.23 36.3183 181.375C33.9022 178.422 32.0998 173.807 33.7616 171.43C35.5513 168.86 40.4985 170.062 40.588 169.435C40.6647 168.834 36.2033 166.712 31.3967 165.754C32.5856 166.776 33.8767 167.62 35.0911 168.144C33.8511 167.965 32.381 167.85 31.2561 168.016C31.0771 168.042 28.9679 168.95 28.2776 170.995C27.0504 174.574 31.1794 178.716 33.2503 180.8C34.5286 182.078 36.5484 184.072 39.821 185.261C38.8111 185.299 37.7628 185.415 36.6635 185.632C36.0882 185.747 35.5513 186.335 35.2445 187.051C34.0045 189.927 39.169 194.67 40.9331 196.293C43.477 198.633 52.0674 205.945 68.7881 209.23C74.8475 210.419 79.2449 211.288 85.2787 210.368C88.922 209.805 97.7681 208.335 104.748 200.844C106.256 199.221 109.9 194.938 111.689 188.546" fill="#E4A02B"/>
<path d="M107.305 182.462C105.106 171.736 96.452 166.163 93.742 164.424C87.5548 160.449 80.9713 159.081 64.3657 159.119C54.8677 159.145 42.4038 159.631 27.6902 161.446C26.9999 160.244 26.6416 159.094 26.8462 158.212C28.1628 152.332 40.8443 152.421 46.3411 152.51C47.1848 152.523 47.8624 152.536 48.297 152.523C58.6388 152.331 64.8898 152.216 68.2519 152.216C69.1339 152.216 69.8242 152.216 70.3228 152.242C81.6105 152.625 87.363 152.868 93.205 155.514C99.699 158.455 103.508 162.481 104.288 163.325C110.527 170.075 112.163 177.706 112.674 181.094C112.674 182.283 112.597 183.957 112.252 185.926C111.396 190.784 109.376 194.632 107.548 197.303C106.576 197.61 105.707 198.032 105.49 198.236C106.628 195.578 108.737 189.608 107.28 182.462" fill="white"/>
<path d="M80.2935 212.298C81.9297 212.298 83.6299 212.17 85.4963 211.889C88.6794 211.403 98.3692 209.933 105.86 201.893C108.225 199.349 112.405 193.928 113.786 186.195C114.08 184.52 114.233 182.807 114.233 181.094L114.221 179.215C113.454 174.268 111.344 168.668 105.438 162.29C104.032 160.768 100.095 156.933 93.8566 154.121C87.6183 151.296 81.4951 151.091 70.3991 150.721C67.9575 150.631 61.4507 150.759 48.4756 151.002H48.2839C47.9131 151.002 47.3762 151.002 46.6987 151.002C40.7928 150.9 26.9739 150.682 25.3505 157.892C24.8008 160.346 26.8589 163.197 28.1244 164.68C28.7508 165.409 29.4667 166.125 30.2337 166.802C29.1727 167.313 27.4981 168.502 26.8078 170.522C25.2738 174.996 29.9141 179.662 32.1384 181.912C32.8415 182.615 33.8514 183.625 35.2576 184.622C34.6568 185.031 34.1454 185.683 33.8131 186.476C32.343 189.914 36.2803 194.146 39.8724 197.444C43.848 201.1 52.8475 207.683 68.4688 210.751C72.8535 211.608 76.3817 212.298 80.2807 212.298H80.2935ZM111.165 181.209C111.165 182.705 111.025 184.2 110.769 185.658C109.542 192.612 105.758 197.508 103.623 199.796C96.8607 207.044 88.2831 208.361 85.0489 208.847C79.2836 209.729 75.0139 208.885 69.0952 207.722C54.2153 204.794 45.7144 198.594 41.9816 195.168C36.3058 189.953 36.4848 188.112 36.6638 187.665C36.8044 187.332 36.9833 187.153 37.0473 187.115C37.9421 186.949 38.7858 186.846 39.5912 186.808C39.7446 186.859 39.898 186.91 40.0514 186.962C42.5441 187.741 44.3594 188.074 45.7528 188.023L51.4669 187.805L46.4047 185.133C44.5639 184.162 42.4674 183.676 40.0897 183.727C37.2134 182.615 35.4365 180.825 34.3372 179.726C32.6881 178.064 28.8147 174.178 29.7224 171.494C30.1314 170.292 31.3075 169.666 31.6271 169.512C32.5219 169.41 33.6852 169.512 34.6951 169.64C35.7306 170.062 36.766 170.266 37.712 170.202L41.9305 169.896L38.4918 167.428C38.1083 167.16 36.8939 166.84 35.4749 166.636C33.8898 165.894 31.985 164.424 30.451 162.648C28.802 160.73 28.2012 159.17 28.3418 158.531C29.4156 153.763 42.3779 153.968 46.6476 154.032C47.3635 154.032 47.9387 154.057 48.335 154.044H48.5267C61.438 153.801 67.9191 153.686 70.2841 153.763C81.8019 154.147 87.1326 154.428 92.5783 156.895C98.3053 159.49 101.897 162.98 103.176 164.36C108.494 170.126 110.462 175.329 111.165 179.854V181.209Z" fill="black"/>
<path d="M160.944 108.625C160.548 109.852 161.443 111.463 162.721 111.54C163.744 111.604 164.766 110.67 164.856 109.545C164.945 108.344 163.948 107.193 162.798 107.206C161.928 107.206 161.187 107.884 160.944 108.625Z" fill="black"/>
<path d="M172.526 111.872C176.118 110.759 179.263 109.468 182.931 109.277C186.6 109.315 190.461 109.443 194.181 109.238C190.474 108.164 186.856 107.551 182.995 107.103C178.981 106.694 174.852 108.612 172.538 111.872" fill="black"/>
<path d="M85.7781 75.2218C83.8478 75.4136 75.8582 76.2061 69.0063 71.3868C66.0022 69.2775 64.0719 66.6825 63.0364 65.2763C60.0068 61.1473 58.6006 57.095 57.9231 54.4744C60.8505 54.615 65.0434 54.4744 69.8628 53.196C74.0429 52.0839 77.3411 50.4604 79.6676 49.0798C80.6903 45.9862 82.48 41.5248 85.6375 36.7183C91.4156 27.9361 98.3953 23.1806 104.544 19.09C112.623 13.7082 117.468 10.4867 125.151 9.00387C129.127 8.23686 141.744 5.79524 151.012 12.5576C154.016 14.7564 157.531 18.5403 162.517 23.9221C166.454 28.1662 167.886 30.122 171.043 30.889C174.648 31.7583 178.777 30.6461 181.564 29.8919C183.494 29.3678 185.041 28.7798 186.115 28.3323C186.192 30.1348 186.179 32.7554 185.693 35.8618C185.143 39.2877 184.082 46.0501 179.583 50.4987C175.978 54.0653 171.414 54.8962 168.781 55.3309C141.629 59.7667 125.381 52.7742 109.236 61.0195C98.4976 66.5036 96.7846 74.1352 85.7909 75.2346" fill="black"/>
<path d="M184.9 40.0545C181.896 41.0899 177.281 42.1637 171.771 41.5118C162.682 40.438 157.16 35.4141 153.491 32.0648C148.378 27.4117 148.787 25.2513 148.953 24.6505C149.324 23.3849 150.5 22.5923 151.471 22.1066L151.65 22.1577C151.855 22.3495 152.149 22.6307 152.519 22.9758C156.891 27.1816 159.026 30.0706 160.458 31.6174C164.855 36.3601 171.119 37.6384 172.155 37.8429C177.958 38.9551 182.957 37.2932 185.667 36.066C185.501 37.1526 185.271 38.5332 184.9 40.0545Z" fill="#332121"/>
<path d="M82.6207 77.2928C83.6817 77.2928 84.8067 77.2416 85.9699 77.1266C93.1031 76.4235 96.7591 73.1254 100.632 69.6355C103.24 67.2834 105.95 64.8417 110.105 62.7197C118.81 58.2711 127.567 58.4756 138.663 58.7441C147.317 58.9486 157.135 59.1787 169.1 57.2228C171.593 56.8138 176.783 55.9701 180.938 51.8666C185.885 46.9833 187.035 39.684 187.598 36.1686C188.007 33.5608 188.16 30.8891 188.045 28.2429C188.02 27.6165 187.687 27.0413 187.15 26.7089C186.614 26.3765 185.962 26.3126 185.374 26.5683C183.98 27.1563 182.536 27.6549 181.078 28.0511C178.509 28.7414 174.636 29.7897 171.504 29.0355C169.318 28.5113 168.154 27.233 165.329 24.1394C164.895 23.6664 164.434 23.1679 163.936 22.631C158.925 17.2236 155.307 13.3247 152.15 11.0109C142.191 3.73714 129.088 6.28103 124.78 7.11195C116.727 8.67152 111.741 11.9824 103.483 17.4921C97.5389 21.4421 90.1501 26.3637 84.0396 35.6573C81.5725 39.4156 79.5655 43.4935 78.0826 47.7759C75.3342 49.3355 72.4068 50.5371 69.3643 51.3425C65.6571 52.3268 61.8477 52.7359 58.0127 52.5569C57.3991 52.5313 56.811 52.787 56.4275 53.26C56.044 53.733 55.9034 54.3594 56.0568 54.9474C57.1434 59.1276 58.9714 62.9754 61.477 66.4013C62.4741 67.7691 64.5578 70.607 67.8942 72.9464C70.8344 75.0173 75.6537 77.2928 82.6079 77.2928H82.6207ZM131.568 54.7812C123.323 54.7812 115.819 55.4843 108.354 59.2937C103.739 61.6459 100.722 64.3688 98.0502 66.7848C94.3686 70.1085 91.4668 72.7291 85.5864 73.3043C77.9803 74.0586 72.9692 71.8215 70.1058 69.8017C67.2934 67.8203 65.4654 65.3275 64.5833 64.1259C62.8576 61.7737 61.4897 59.1915 60.5182 56.4175C63.8419 56.3536 67.14 55.8934 70.3486 55.0369C73.9536 54.0781 77.4179 52.6208 80.6393 50.7161C81.0356 50.486 81.3424 50.1025 81.483 49.6679C82.8764 45.4493 84.8067 41.4354 87.2355 37.7537C92.9241 29.1122 99.955 24.4334 105.592 20.6751C113.723 15.2678 118.197 12.2892 125.496 10.8703C129.395 10.116 141.271 7.81504 149.861 14.0917C152.725 16.1754 156.227 19.9593 161.085 25.2132C161.584 25.7501 162.044 26.2487 162.466 26.7217C165.547 30.0965 167.247 31.9501 170.583 32.7554C174.661 33.7398 179.11 32.5381 182.05 31.7455C182.766 31.5538 183.482 31.3365 184.198 31.0936C184.146 32.5892 184.006 34.0849 183.776 35.555C183.239 38.9042 182.254 45.1298 178.215 49.131C174.93 52.3779 170.711 53.0682 168.448 53.439C156.841 55.3309 147.215 55.1136 138.727 54.909C136.273 54.8579 133.882 54.794 131.556 54.794L131.568 54.7812Z" fill="black"/>
<path d="M178.867 64.1901C176.297 62.247 171.964 59.5625 166.173 58.6933C163.399 58.2714 161.264 58.4248 160.114 58.5015C142.064 59.8182 133.038 60.4702 123.349 63.0524C111.243 66.2738 102.55 70.4156 94.1641 74.4168C88.5522 77.1013 83.963 79.5813 80.7032 81.4221C80.5754 78.1368 80.4476 74.8515 80.3197 71.5661C83.6306 69.0222 86.3791 67.1942 87.9898 66.1715C122.428 44.0563 159.449 46.9325 171.082 48.3643C172.999 48.6072 174.521 48.8373 175.16 48.9268C176.131 51.3556 177.09 54.2446 177.819 57.5428C178.343 59.9333 178.675 62.1703 178.867 64.1773" fill="#DF0022"/>
<path d="M80.716 83.3395C81.0484 83.3395 81.368 83.2628 81.662 83.0838C85.9828 80.6294 90.4697 78.2901 94.9951 76.1297C103.304 72.1668 111.907 68.0634 123.847 64.8803C133.345 62.3492 142.332 61.6972 160.241 60.3933C161.239 60.3166 163.284 60.176 165.905 60.5595C170.059 61.1859 174.048 62.9117 177.729 65.6857C178.343 66.1459 179.161 66.197 179.826 65.8263C180.49 65.4556 180.874 64.7269 180.797 63.9727C180.58 61.6845 180.222 59.3707 179.723 57.108C179.059 54.0783 178.125 51.0742 176.975 48.1852C176.719 47.5588 176.157 47.1114 175.492 46.9963C174.84 46.8941 173.306 46.664 171.363 46.4211C157.186 44.6825 120.6 42.9568 87.0054 64.5224C84.3721 66.2098 81.7515 68.0634 79.1948 70.0192C78.6962 70.4027 78.4278 70.9908 78.4406 71.6171L78.8241 81.4731C78.8496 82.1379 79.2204 82.7515 79.8084 83.0711C80.1024 83.2373 80.422 83.3139 80.7416 83.3139L80.716 83.3395ZM162.389 56.4816C161.341 56.4816 160.523 56.5455 159.973 56.5839C141.821 57.9006 132.706 58.5653 122.863 61.1859C110.578 64.4584 101.821 68.6386 93.346 72.6782C89.6899 74.4295 86.0595 76.2831 82.5185 78.2262L82.3011 72.4864C84.5127 70.8118 86.7881 69.2394 89.0636 67.7821C121.61 46.8813 157.122 48.5687 170.89 50.2561C172.053 50.3967 173.063 50.5373 173.817 50.6524C174.712 53.0301 175.441 55.4845 175.978 57.9517C176.144 58.7187 176.297 59.4857 176.438 60.2655C173.268 58.4758 169.944 57.2998 166.493 56.7884C164.92 56.5455 163.54 56.4816 162.415 56.4816H162.389Z" fill="black"/>
<path d="M60.8119 58.6168C60.8119 58.6168 60.9014 58.6168 60.9525 58.6168C74.1066 57.6836 84.001 53.7464 90.3543 46.92C91.5176 45.6673 92.144 44.7852 93.1795 43.3279C94.2405 41.8322 95.8384 39.5696 99.0854 35.4278C105.554 27.1953 108.801 23.0662 112.009 20.599L112.188 20.4584C114.528 18.656 121.622 13.1847 131.99 13.1335C132.079 13.1335 132.169 13.1335 132.245 13.1335C146.627 13.1335 153.159 20.3434 158.924 26.7095C165.188 33.6253 171.12 40.1704 184.593 33.9832C185.552 33.5358 185.974 32.3981 185.539 31.4393C185.092 30.4806 183.954 30.0587 182.996 30.4934C172.066 35.5045 167.975 30.9791 161.762 24.1272C155.767 17.5182 148.327 9.28573 132.233 9.28573C132.143 9.28573 132.041 9.28573 131.951 9.28573C124.218 9.33686 116.778 12.0597 109.836 17.416L109.67 17.5438C106.078 20.305 102.729 24.5491 96.0813 33.0245C92.7576 37.2558 91.1213 39.5696 90.0475 41.1036C89.076 42.4842 88.5391 43.2384 87.5548 44.2994C81.8789 50.3843 72.8411 53.9125 60.6841 54.7818C59.6231 54.8585 58.8305 55.7789 58.9072 56.8272C58.9839 57.837 59.8148 58.6041 60.8119 58.6041V58.6168Z" fill="white"/>
<path d="M133.204 80.5021C131.427 81.8444 130.291 82.6848 129 84.5C128.131 82.3652 128.321 80.6555 129.906 79.0065C130.584 78.2906 131.44 77.7665 132.31 77.3191C136.733 75.0564 142.127 74.7752 146.755 76.5776C147.138 76.731 147.522 76.8972 147.816 77.1912C148.161 77.5492 148.378 78.2267 147.931 78.6102C147.547 78.9426 147.253 78.7124 146.844 78.559C145.745 78.15 144.62 77.8687 143.444 77.7409C141.117 77.4852 138.74 77.792 136.554 78.6357C135.352 79.096 134.214 79.7223 133.179 80.5021" fill="black"/>
<path d="M180.81 73.3177C182.881 73.7907 184.811 74.7366 186.639 75.8104C186.563 73.6245 185.105 71.5536 183.073 70.7354C182.203 70.3903 181.257 70.2624 180.324 70.2113C175.607 69.9684 170.826 71.8476 167.528 75.2224C167.26 75.5036 166.991 75.7977 166.851 76.1684C166.684 76.6158 166.774 77.2933 167.298 77.4467C167.758 77.5873 167.924 77.2678 168.218 76.9737C169.024 76.1939 169.88 75.5036 170.839 74.9412C172.757 73.8162 174.943 73.1515 177.167 73.0237C178.394 72.9597 179.621 73.0492 180.823 73.3177" fill="black"/>
<path d="M105.843 95.8033L110.395 95.3811L110.817 99.9265L115.368 99.5043L115.79 104.05L120.341 103.628L120.763 108.173L148.073 105.639L147.651 101.094L152.203 100.672L151.781 96.1261L156.332 95.7038L155.911 91.1583L165.014 90.3138L165.435 94.8593L169.987 94.437L170.408 98.9825L202.271 96.0264L201.85 91.481L206.401 91.0587L205.979 86.5132L210.531 86.091L209.687 77L105 86.7124L105.843 95.8033Z" fill="black"/>
<path d="M114.525 90.4134L114.947 94.9589L119.498 94.5367L119.077 89.9912L114.525 90.4134ZM119.498 94.5367L119.92 99.0821L124.471 98.6599L124.05 94.1144L119.498 94.5367ZM124.05 94.1144L128.601 93.6921L128.179 89.1467L123.628 89.5689L124.05 94.1144ZM128.601 93.6921L129.023 98.2376L133.574 97.8154L133.153 93.2699L128.601 93.6921ZM133.574 97.8154L133.996 102.361L138.547 101.939L138.126 97.3931L133.574 97.8154ZM129.023 98.2376L124.471 98.6599L124.893 103.205L129.445 102.783L129.023 98.2376Z" fill="white"/>
<path d="M169.146 85.3458L173.698 84.9235L174.119 89.469L178.671 89.0467L178.249 84.5013L182.8 84.079L183.222 88.6245L187.774 88.2022L188.195 92.7477L183.644 93.17L183.222 88.6245L178.671 89.0467L179.092 93.5922L174.541 94.0145L174.119 89.469L169.568 89.8913L169.146 85.3458Z" fill="white"/>
<path d="M123.15 24.6203C123.15 24.6203 120.042 30.4064 130.052 36.8579C140.062 43.3094 147.731 37.5473 147.731 37.5473C147.731 37.5473 149.897 35.3721 148.687 34.0864C148.361 33.7396 147.889 33.578 147.422 33.6337C145.309 33.887 135.691 34.9048 127.777 26.4296C127.777 26.4296 126.768 24.9315 124.317 24.1374C124.317 24.1374 123.987 21.7422 123.339 22.4061C122.69 23.07 122.736 23.3667 123.15 24.6203Z" fill="#FFD900"/>
<path d="M128.739 29.071C128.739 29.071 129.593 32.4616 135.863 34.7107C142.134 36.9597 146.144 35.8645 146.672 34.8489C146.672 34.8489 139.99 35.3218 135.719 33.4371C131.449 31.5524 128.739 29.071 128.739 29.071Z" fill="black"/>
<path d="M132.719 29.5368C132.719 29.5368 134.988 26.9631 136.285 24.7345C136.38 24.5707 137.565 23.426 138.528 22.9803C138.528 22.9803 138.72 22.8202 138.859 21.1777C138.859 21.1777 138.793 20.6704 139.398 21.0202C140.004 21.3699 139.97 21.7452 139.97 21.7452L139.943 22.7396C139.943 22.7396 139.833 22.9805 140.121 23.3073C140.41 23.634 142.266 27.8365 138.943 32.2683C138.943 32.2683 135.627 31.3152 134.542 30.6567C134.542 30.6567 135.42 29.1328 135.303 28.4472L133.815 30.3009L132.719 29.5368Z" fill="#FFD900"/>
<path d="M126.93 35.3841L125.826 34.3554C125.826 34.3554 121.898 36.4293 118.217 36.372C118.217 36.372 115.631 36.5293 116.64 38.7537C117.649 40.9781 122.607 41.5162 122.607 41.5162C122.607 41.5162 128.263 42.1119 132.319 38.9985C132.319 38.9985 129.001 37.295 127.83 36.0956C127.83 36.0956 120.616 39.7217 118.622 37.5378C118.622 37.5378 122.896 37.4501 126.93 35.3841Z" fill="#FFD900"/>
<path fill-rule="evenodd" clip-rule="evenodd" d="M187.59 36.214C187.025 39.7464 185.863 47.0043 180.937 51.8667C180.26 52.5357 179.555 53.1181 178.838 53.626C179.171 54.7795 179.467 55.9419 179.723 57.1081C180.221 59.3708 180.579 61.6846 180.796 63.9728C180.872 64.7146 180.502 65.4317 179.857 65.8078C179.847 65.8141 179.836 65.8203 179.825 65.8264L179.801 65.8392C179.789 65.846 179.776 65.8526 179.764 65.8591L179.738 65.8721C179.842 66.0666 179.945 66.2619 180.046 66.4578C180.243 66.8424 180.434 67.2296 180.617 67.6193C181.041 68.5237 181.424 69.4417 181.766 70.3712C181.853 70.387 181.94 70.4042 182.027 70.4229C182.039 70.4255 182.051 70.4281 182.063 70.4308C182.079 70.4342 182.094 70.4377 182.11 70.4412C182.178 70.4567 182.246 70.4731 182.313 70.4904C182.329 70.4945 182.345 70.4987 182.361 70.5029C182.373 70.5061 182.385 70.5092 182.397 70.5124C182.413 70.5169 182.429 70.5213 182.446 70.5259C182.658 70.5849 182.867 70.6542 183.072 70.7355C183.116 70.7534 183.16 70.7719 183.204 70.791C183.449 70.8974 183.685 71.0221 183.911 71.1631C184.713 71.6634 185.384 72.3681 185.861 73.1847C185.866 73.1926 185.87 73.2004 185.875 73.2082C185.991 73.4099 186.096 73.6183 186.188 73.8321C186.211 73.8873 186.234 73.9428 186.256 73.9987C186.483 74.5759 186.617 75.1886 186.638 75.8106C185.759 75.2942 184.857 74.8074 183.926 74.3886C183.9 74.377 183.875 74.3654 183.849 74.3539C183.608 74.2468 183.366 74.1443 183.121 74.047C183.033 74.0117 182.944 73.9771 182.855 73.9433C182.904 74.1433 182.95 74.3436 182.995 74.5444C183.064 74.957 183.135 75.4206 183.207 75.931C183.346 76.9264 183.488 78.0996 183.62 79.4185L209.687 77.0001L210.53 86.0911L205.979 86.5133L206.4 91.0588L201.849 91.4811L202.27 96.0266L184.169 97.7059C184.059 100.461 183.852 103.278 183.514 106.068C184.377 106.2 185.153 106.286 185.834 106.348C186.424 106.402 186.942 106.437 187.382 106.467L187.546 106.478C187.955 106.503 188.288 106.529 188.518 106.554C188.841 106.592 189.163 106.631 189.485 106.671C193.759 107.205 197.844 107.994 199.805 109.801C201.979 111.476 203.193 114.109 203.052 116.883C202.937 119.363 201.748 121.498 199.895 122.623L199.601 122.764C197.398 123.507 195.035 122.698 192.916 121.565C191.514 123.294 189.526 124.731 188.07 125.781C185.46 127.673 182.55 129.243 175.656 131.544C175.427 131.62 175.193 131.698 174.954 131.776C174.355 131.974 173.783 132.162 173.236 132.343C173.234 132.343 173.231 132.344 173.229 132.345C173.187 132.359 173.144 132.373 173.102 132.387C173.101 132.387 173.1 132.387 173.098 132.388C172.963 132.432 172.829 132.477 172.696 132.52C172.659 132.532 172.622 132.544 172.585 132.556C171.535 132.901 170.579 133.212 169.702 133.49C169.853 133.714 170.028 133.967 170.224 134.243L170.316 134.375L170.317 134.376C171.086 135.48 172.105 136.943 173.274 138.644C177.785 145.207 184.526 155.313 187.738 162.008C192.071 171.059 193.823 181.004 192.659 190.03C192.646 190.119 192.634 190.196 192.608 190.272C183.468 221.093 156.891 238.798 117.774 240.14C116.227 240.192 114.668 240.217 113.108 240.217V240.23C112.475 240.23 111.841 240.226 111.207 240.217C109.843 240.199 108.476 240.161 107.108 240.105C68.3014 238.504 28.575 221.859 22.947 207.735C1.67541 180.25 1.89271 146.361 15.4815 131.916C24.0975 122.763 36.5868 122.572 49.8432 131.367C58.4415 128.374 68.8246 125.206 79.9069 125.033C82.2201 124.997 84.5636 125.092 86.9278 125.346C85.7407 123.369 84.6858 121.271 83.7577 119.091C81.2513 113.203 79.6699 106.712 78.9072 100.363C78.7166 98.776 78.5771 97.1977 78.4871 95.64C78.4626 95.2155 78.4417 94.7925 78.4246 94.3713C77.4627 94.3712 76.4958 94.2381 75.5516 93.9831C75.4515 94.1604 75.3547 94.3328 75.2609 94.5005C74.0993 96.5768 73.4056 97.9327 72.9188 98.8841L72.853 99.0125C72.8172 99.0832 72.7822 99.152 72.748 99.2192C71.9908 100.708 71.6279 101.367 70.5393 102.259C68.4172 103.998 66.4614 104.369 64.7484 104.688C63.355 104.944 62.1406 105.174 60.76 106.133C59.7319 106.847 58.8503 107.802 58.1187 108.992C57.987 109.206 57.8601 109.428 57.7382 109.657C57.3993 110.295 57.0982 110.991 56.8352 111.745C56.833 111.751 56.8308 111.758 56.8286 111.764C56.7077 112.112 56.5949 112.472 56.4903 112.844C56.2602 113.662 55.506 114.25 54.6495 114.25H54.6367C53.7674 114.238 53.0132 113.649 52.7959 112.819C52.6998 112.457 52.6113 112.094 52.5304 111.731C52.5303 111.731 52.5303 111.731 52.5302 111.73C52.3391 110.872 52.1906 110.011 52.0845 109.147C52.0303 108.706 51.9871 108.264 51.9549 107.822C51.8536 106.429 51.8617 105.033 51.9778 103.64C52.5275 96.916 55.3654 90.8439 59.9674 86.5743C62.1463 84.551 64.46 83.1397 66.6399 82.1549C66.6581 80.1697 67.0996 78.6998 67.2022 78.3921C67.2536 78.2329 67.3075 78.0757 67.3636 77.9204C67.9029 76.43 68.6596 75.1194 69.5966 74.031C68.9713 73.672 68.404 73.3062 67.8934 72.9465C66.7193 72.1233 65.7003 71.2384 64.8293 70.3775C63.225 68.7919 62.1223 67.2879 61.4761 66.4014C58.9706 62.9755 57.1425 59.1277 56.056 54.9475C55.9026 54.3595 56.0432 53.7331 56.4267 53.2601C56.8102 52.7871 57.3982 52.5314 58.0118 52.557C61.8468 52.736 65.6563 52.3269 69.3635 51.3426C72.4059 50.5372 75.3333 49.3356 78.0817 47.776C79.5646 43.4936 81.5716 39.4157 84.0388 35.6574C90.1493 26.3639 97.5381 21.4422 103.482 17.4922C111.74 11.9825 116.726 8.67164 124.779 7.11207L124.803 7.10758C129.134 6.27205 142.208 3.7503 152.149 11.011C155.306 13.3248 158.924 17.2237 163.935 22.6311C164.434 23.168 164.894 23.6666 165.328 24.1395L165.349 24.1618C168.159 27.2393 169.322 28.5127 171.503 29.0356C174.62 29.7862 178.471 28.7514 181.041 28.0611L181.078 28.0513C182.535 27.655 183.979 27.1564 185.373 26.5684C185.961 26.3127 186.613 26.3766 187.15 26.709C187.687 27.0414 188.019 27.6166 188.044 28.243C188.16 30.8892 188.006 33.5609 187.597 36.1687L187.59 36.2127V36.214ZM193.516 37.1517L193.59 36.691V36.6676C194.011 33.8101 194.165 30.8901 194.039 27.9899C193.93 25.3928 192.548 22.9944 190.308 21.6074C188.202 20.3041 185.5 19.9869 183.021 21.0485C181.883 21.5278 180.701 21.9354 179.511 22.2593C179.508 22.2601 179.506 22.2608 179.503 22.2615L179.484 22.2665C178.166 22.6208 176.875 22.9619 175.587 23.1551C174.26 23.3543 173.391 23.3188 172.908 23.2023L172.902 23.2009C172.841 23.1863 172.812 23.1761 172.807 23.174C172.802 23.1723 172.803 23.1726 172.803 23.1725C172.802 23.1719 172.783 23.162 172.741 23.1332C172.697 23.1033 172.626 23.0508 172.521 22.9627C171.982 22.5094 171.294 21.7746 169.779 20.1158L169.779 20.115L169.752 20.0862L169.746 20.0797C169.306 19.6002 168.839 19.0946 168.334 18.5503C168.333 18.5497 168.332 18.549 168.332 18.5484L167.966 18.1536C163.297 13.1148 159.335 8.83867 155.695 6.17132L155.688 6.16586C143.614 -2.65291 128.311 0.315355 123.912 1.1686C123.826 1.1853 123.744 1.20119 123.666 1.21617L123.639 1.2215C114.365 3.0174 108.478 6.94587 100.471 12.2884L100.162 12.4949L100.062 12.5614C94.0771 16.538 85.8227 22.0229 79.0254 32.3611L79.023 32.3647C76.7243 35.8664 74.787 39.6151 73.2514 43.5366C71.5044 44.3775 69.6895 45.0496 67.8281 45.5424L67.8237 45.5435C64.7077 46.3709 61.5118 46.7138 58.2915 46.5635L58.2766 46.5628L58.2616 46.5622C55.829 46.4609 53.3913 47.4769 51.7662 49.4813C50.2073 51.4039 49.6061 53.9859 50.2489 56.457C51.5248 61.3653 53.6785 65.9034 56.6331 69.9433L56.6377 69.9496C57.4523 71.0672 59.1464 73.3912 61.774 75.7358C61.6774 75.9967 61.586 76.26 61.4998 76.5257C61.3892 76.8614 61.2047 77.4823 61.0348 78.3214C59.3122 79.3479 57.5684 80.6144 55.8866 82.1758M193.516 37.1517L193.515 37.1621C193.501 37.2489 193.486 37.3398 193.471 37.4346C192.925 40.8752 191.556 49.488 185.561 55.7222C185.568 55.7556 185.576 55.7889 185.583 55.8222C186.134 58.3247 186.528 60.8733 186.768 63.3895C186.849 64.2127 186.8 65.0254 186.634 65.8041C189.255 67.2771 191.232 69.7475 192.122 72.6039L215.107 70.4715L217.059 91.5111L212.507 91.9334L212.929 96.4789L208.377 96.9011L208.799 101.447L198.517 102.401C200.243 102.981 202.109 103.843 203.661 105.201C207.277 108.086 209.276 112.532 209.045 117.173C208.848 121.351 206.803 125.449 203.008 127.752L202.753 127.907L201.862 128.333L201.518 128.449C198.912 129.328 196.419 129.137 194.309 128.574C193.313 129.399 192.387 130.065 191.726 130.542C191.677 130.577 191.629 130.611 191.583 130.644C188.566 132.831 185.333 134.536 179.199 136.675C183.72 143.298 189.976 152.802 193.147 159.413L193.149 159.417C197.928 169.398 199.937 180.504 198.61 190.797L198.605 190.837L198.599 190.878L198.597 190.894C198.578 191.029 198.514 191.48 198.348 192.021C188.367 225.611 159.469 244.384 119.108 246.094V246.23H113.108C92.0108 246.23 70.2381 241.664 52.9118 235.171C44.2453 231.923 36.5182 228.129 30.4687 224.055C24.9243 220.321 20.0672 215.874 17.7342 210.797C6.68118 196.268 1.12604 180.034 0.154649 165.331C-0.818951 150.595 2.80105 136.639 11.1112 127.805L11.1126 127.804C16.4844 122.097 23.2819 119.031 30.8273 118.912C37.3681 118.808 44.0756 120.917 50.6036 124.765C58.1925 122.222 67.3683 119.639 77.3025 119.12C75.8351 115.263 74.7212 111.247 73.9261 107.231C70.7524 109.673 67.7243 110.237 65.9281 110.572L65.84 110.588L65.8312 110.59C65.0873 110.726 64.8104 110.787 64.5877 110.858C64.4499 110.903 64.3439 110.949 64.1823 111.061C63.6948 111.4 62.887 112.259 62.2666 114.467L62.2662 114.469C61.3272 117.807 58.2631 120.25 54.6495 120.25H54.5926L54.5485 120.25C51.0236 120.198 47.909 117.817 46.9953 114.353C46.0154 110.663 45.6862 106.896 45.9981 103.147C46.6605 95.0569 50.0958 87.5492 55.8847 82.1775" fill="white"/>
<defs>
<radialGradient id="paint0_radial_151_1037" cx="0" cy="0" r="1" gradientUnits="userSpaceOnUse" gradientTransform="translate(721.509 -108) rotate(90) scale(486.111 522.204)">
<stop stop-color="#3CFFF2"/>
<stop offset="0.848039" stop-color="#FFD900"/>
</radialGradient>
<radialGradient id="paint1_radial_151_1037" cx="0" cy="0" r="1" gradientUnits="userSpaceOnUse" gradientTransform="translate(721.509 -108) rotate(90) scale(486.111 522.204)">
<stop stop-color="#3CFFF2"/>
<stop offset="0.848039" stop-color="#FFD900"/>
</radialGradient>
<radialGradient id="paint2_radial_151_1037" cx="0" cy="0" r="1" gradientUnits="userSpaceOnUse" gradientTransform="translate(721.509 -108) rotate(90) scale(486.111 522.204)">
<stop stop-color="#3CFFF2"/>
<stop offset="0.848039" stop-color="#FFD900"/>
</radialGradient>
<radialGradient id="paint3_radial_151_1037" cx="0" cy="0" r="1" gradientUnits="userSpaceOnUse" gradientTransform="translate(721.509 -108) rotate(90) scale(486.111 522.204)">
<stop stop-color="#3CFFF2"/>
<stop offset="0.848039" stop-color="#FFD900"/>
</radialGradient>
<radialGradient id="paint4_radial_151_1037" cx="0" cy="0" r="1" gradientUnits="userSpaceOnUse" gradientTransform="translate(721.509 -108) rotate(90) scale(486.111 522.204)">
<stop stop-color="#3CFFF2"/>
<stop offset="0.848039" stop-color="#FFD900"/>
</radialGradient>
<radialGradient id="paint5_radial_151_1037" cx="0" cy="0" r="1" gradientUnits="userSpaceOnUse" gradientTransform="translate(721.509 -108) rotate(90) scale(486.111 522.204)">
<stop stop-color="#3CFFF2"/>
<stop offset="0.848039" stop-color="#FFD900"/>
</radialGradient>
<radialGradient id="paint6_radial_151_1037" cx="0" cy="0" r="1" gradientUnits="userSpaceOnUse" gradientTransform="translate(721.509 -108) rotate(90) scale(486.111 522.204)">
<stop stop-color="#3CFFF2"/>
<stop offset="0.848039" stop-color="#FFD900"/>
</radialGradient>
<radialGradient id="paint7_radial_151_1037" cx="0" cy="0" r="1" gradientUnits="userSpaceOnUse" gradientTransform="translate(721.509 -108) rotate(90) scale(486.111 522.204)">
<stop stop-color="#3CFFF2"/>
<stop offset="0.848039" stop-color="#FFD900"/>
</radialGradient>
<radialGradient id="paint8_radial_151_1037" cx="0" cy="0" r="1" gradientUnits="userSpaceOnUse" gradientTransform="translate(721.509 -108) rotate(90) scale(486.111 522.204)">
<stop stop-color="#3CFFF2"/>
<stop offset="0.848039" stop-color="#FFD900"/>
</radialGradient>
<radialGradient id="paint9_radial_151_1037" cx="0" cy="0" r="1" gradientUnits="userSpaceOnUse" gradientTransform="translate(721.509 -108) rotate(90) scale(486.111 522.204)">
<stop stop-color="#3CFFF2"/>
<stop offset="0.848039" stop-color="#FFD900"/>
</radialGradient>
<radialGradient id="paint10_radial_151_1037" cx="0" cy="0" r="1" gradientUnits="userSpaceOnUse" gradientTransform="translate(721.509 -108) rotate(90) scale(486.111 522.204)">
<stop stop-color="#3CFFF2"/>
<stop offset="0.848039" stop-color="#FFD900"/>
</radialGradient>
<radialGradient id="paint11_radial_151_1037" cx="0" cy="0" r="1" gradientUnits="userSpaceOnUse" gradientTransform="translate(721.509 -108) rotate(90) scale(486.111 522.204)">
<stop stop-color="#3CFFF2"/>
<stop offset="0.848039" stop-color="#FFD900"/>
</radialGradient>
<radialGradient id="paint12_radial_151_1037" cx="0" cy="0" r="1" gradientUnits="userSpaceOnUse" gradientTransform="translate(721.509 -108) rotate(90) scale(486.111 522.204)">
<stop stop-color="#3CFFF2"/>
<stop offset="0.848039" stop-color="#FFD900"/>
</radialGradient>
<radialGradient id="paint13_radial_151_1037" cx="0" cy="0" r="1" gradientUnits="userSpaceOnUse" gradientTransform="translate(721.509 -108) rotate(90) scale(486.111 522.204)">
<stop stop-color="#3CFFF2"/>
<stop offset="0.848039" stop-color="#FFD900"/>
</radialGradient>
<radialGradient id="paint14_radial_151_1037" cx="0" cy="0" r="1" gradientUnits="userSpaceOnUse" gradientTransform="translate(721.509 -108) rotate(90) scale(486.111 522.204)">
<stop stop-color="#3CFFF2"/>
<stop offset="0.848039" stop-color="#FFD900"/>
</radialGradient>
<radialGradient id="paint15_radial_151_1037" cx="0" cy="0" r="1" gradientUnits="userSpaceOnUse" gradientTransform="translate(721.509 -108) rotate(90) scale(486.111 522.204)">
<stop stop-color="#3CFFF2"/>
<stop offset="0.848039" stop-color="#FFD900"/>
</radialGradient>
<radialGradient id="paint16_radial_151_1037" cx="0" cy="0" r="1" gradientUnits="userSpaceOnUse" gradientTransform="translate(721.509 -108) rotate(90) scale(486.111 522.204)">
<stop stop-color="#3CFFF2"/>
<stop offset="0.848039" stop-color="#FFD900"/>
</radialGradient>
<radialGradient id="paint17_radial_151_1037" cx="0" cy="0" r="1" gradientUnits="userSpaceOnUse" gradientTransform="translate(721.509 -108) rotate(90) scale(486.111 522.204)">
<stop stop-color="#3CFFF2"/>
<stop offset="0.848039" stop-color="#FFD900"/>
</radialGradient>
<radialGradient id="paint18_radial_151_1037" cx="0" cy="0" r="1" gradientUnits="userSpaceOnUse" gradientTransform="translate(721.509 -108) rotate(90) scale(486.111 522.204)">
<stop stop-color="#3CFFF2"/>
<stop offset="0.848039" stop-color="#FFD900"/>
</radialGradient>
<radialGradient id="paint19_radial_151_1037" cx="0" cy="0" r="1" gradientUnits="userSpaceOnUse" gradientTransform="translate(721.509 -108) rotate(90) scale(486.111 522.204)">
<stop stop-color="#3CFFF2"/>
<stop offset="0.848039" stop-color="#FFD900"/>
</radialGradient>
<radialGradient id="paint20_radial_151_1037" cx="0" cy="0" r="1" gradientUnits="userSpaceOnUse" gradientTransform="translate(721.509 -108) rotate(90) scale(486.111 522.204)">
<stop stop-color="#3CFFF2"/>
<stop offset="0.848039" stop-color="#FFD900"/>
</radialGradient>
<radialGradient id="paint21_radial_151_1037" cx="0" cy="0" r="1" gradientUnits="userSpaceOnUse" gradientTransform="translate(721.509 -108) rotate(90) scale(486.111 522.204)">
<stop stop-color="#3CFFF2"/>
<stop offset="0.848039" stop-color="#FFD900"/>
</radialGradient>
<radialGradient id="paint22_radial_151_1037" cx="0" cy="0" r="1" gradientUnits="userSpaceOnUse" gradientTransform="translate(721.509 -108) rotate(90) scale(486.111 522.204)">
<stop stop-color="#3CFFF2"/>
<stop offset="0.848039" stop-color="#FFD900"/>
</radialGradient>
<radialGradient id="paint23_radial_151_1037" cx="0" cy="0" r="1" gradientUnits="userSpaceOnUse" gradientTransform="translate(721.509 -108) rotate(90) scale(486.111 522.204)">
<stop stop-color="#3CFFF2"/>
<stop offset="0.848039" stop-color="#FFD900"/>
</radialGradient>
<radialGradient id="paint24_radial_151_1037" cx="0" cy="0" r="1" gradientUnits="userSpaceOnUse" gradientTransform="translate(721.509 -108) rotate(90) scale(486.111 522.204)">
<stop stop-color="#3CFFF2"/>
<stop offset="0.848039" stop-color="#FFD900"/>
</radialGradient>
<radialGradient id="paint25_radial_151_1037" cx="0" cy="0" r="1" gradientUnits="userSpaceOnUse" gradientTransform="translate(721.509 -108) rotate(90) scale(486.111 522.204)">
<stop stop-color="#3CFFF2"/>
<stop offset="0.848039" stop-color="#FFD900"/>
</radialGradient>
<radialGradient id="paint26_radial_151_1037" cx="0" cy="0" r="1" gradientUnits="userSpaceOnUse" gradientTransform="translate(721.509 -108) rotate(90) scale(486.111 522.204)">
<stop stop-color="#3CFFF2"/>
<stop offset="0.848039" stop-color="#FFD900"/>
</radialGradient>
<radialGradient id="paint27_radial_151_1037" cx="0" cy="0" r="1" gradientUnits="userSpaceOnUse" gradientTransform="translate(721.509 -108) rotate(90) scale(486.111 522.204)">
<stop stop-color="#3CFFF2"/>
<stop offset="0.848039" stop-color="#FFD900"/>
</radialGradient>
<radialGradient id="paint28_radial_151_1037" cx="0" cy="0" r="1" gradientUnits="userSpaceOnUse" gradientTransform="translate(721.509 -108) rotate(90) scale(486.111 522.204)">
<stop stop-color="#3CFFF2"/>
<stop offset="0.848039" stop-color="#FFD900"/>
</radialGradient>
<radialGradient id="paint29_radial_151_1037" cx="0" cy="0" r="1" gradientUnits="userSpaceOnUse" gradientTransform="translate(721.509 -108) rotate(90) scale(486.111 522.204)">
<stop stop-color="#3CFFF2"/>
<stop offset="0.848039" stop-color="#FFD900"/>
</radialGradient>
<radialGradient id="paint30_radial_151_1037" cx="0" cy="0" r="1" gradientUnits="userSpaceOnUse" gradientTransform="translate(721.509 -108) rotate(90) scale(486.111 522.204)">
<stop stop-color="#3CFFF2"/>
<stop offset="0.848039" stop-color="#FFD900"/>
</radialGradient>
<radialGradient id="paint31_radial_151_1037" cx="0" cy="0" r="1" gradientUnits="userSpaceOnUse" gradientTransform="translate(721.509 -108) rotate(90) scale(486.111 522.204)">
<stop stop-color="#3CFFF2"/>
<stop offset="0.848039" stop-color="#FFD900"/>
</radialGradient>
<radialGradient id="paint32_radial_151_1037" cx="0" cy="0" r="1" gradientUnits="userSpaceOnUse" gradientTransform="translate(721.509 -108) rotate(90) scale(486.111 522.204)">
<stop stop-color="#3CFFF2"/>
<stop offset="0.848039" stop-color="#FFD900"/>
</radialGradient>
<radialGradient id="paint33_radial_151_1037" cx="0" cy="0" r="1" gradientUnits="userSpaceOnUse" gradientTransform="translate(721.509 -108) rotate(90) scale(486.111 522.204)">
<stop stop-color="#3CFFF2"/>
<stop offset="0.848039" stop-color="#FFD900"/>
</radialGradient>
<radialGradient id="paint34_radial_151_1037" cx="0" cy="0" r="1" gradientUnits="userSpaceOnUse" gradientTransform="translate(721.509 -108) rotate(90) scale(486.111 522.204)">
<stop stop-color="#3CFFF2"/>
<stop offset="0.848039" stop-color="#FFD900"/>
</radialGradient>
<radialGradient id="paint35_radial_151_1037" cx="0" cy="0" r="1" gradientUnits="userSpaceOnUse" gradientTransform="translate(721.509 -108) rotate(90) scale(486.111 522.204)">
<stop stop-color="#3CFFF2"/>
<stop offset="0.848039" stop-color="#FFD900"/>
</radialGradient>
<radialGradient id="paint36_radial_151_1037" cx="0" cy="0" r="1" gradientUnits="userSpaceOnUse" gradientTransform="translate(721.509 -108) rotate(90) scale(486.111 522.204)">
<stop stop-color="#3CFFF2"/>
<stop offset="0.848039" stop-color="#FFD900"/>
</radialGradient>
<radialGradient id="paint37_radial_151_1037" cx="0" cy="0" r="1" gradientUnits="userSpaceOnUse" gradientTransform="translate(721.509 -108) rotate(90) scale(486.111 522.204)">
<stop stop-color="#3CFFF2"/>
<stop offset="0.848039" stop-color="#FFD900"/>
</radialGradient>
<radialGradient id="paint38_radial_151_1037" cx="0" cy="0" r="1" gradientUnits="userSpaceOnUse" gradientTransform="translate(721.509 -108) rotate(90) scale(486.111 522.204)">
<stop stop-color="#3CFFF2"/>
<stop offset="0.848039" stop-color="#FFD900"/>
</radialGradient>
<radialGradient id="paint39_radial_151_1037" cx="0" cy="0" r="1" gradientUnits="userSpaceOnUse" gradientTransform="translate(721.509 -108) rotate(90) scale(486.111 522.204)">
<stop stop-color="#3CFFF2"/>
<stop offset="0.848039" stop-color="#FFD900"/>
</radialGradient>
<radialGradient id="paint40_radial_151_1037" cx="0" cy="0" r="1" gradientUnits="userSpaceOnUse" gradientTransform="translate(721.509 -108) rotate(90) scale(486.111 522.204)">
<stop stop-color="#3CFFF2"/>
<stop offset="0.848039" stop-color="#FFD900"/>
</radialGradient>
<radialGradient id="paint41_radial_151_1037" cx="0" cy="0" r="1" gradientUnits="userSpaceOnUse" gradientTransform="translate(721.509 -108) rotate(90) scale(486.111 522.204)">
<stop stop-color="#3CFFF2"/>
<stop offset="0.848039" stop-color="#FFD900"/>
</radialGradient>
<radialGradient id="paint42_radial_151_1037" cx="0" cy="0" r="1" gradientUnits="userSpaceOnUse" gradientTransform="translate(721.509 -108) rotate(90) scale(486.111 522.204)">
<stop stop-color="#3CFFF2"/>
<stop offset="0.848039" stop-color="#FFD900"/>
</radialGradient>
<radialGradient id="paint43_radial_151_1037" cx="0" cy="0" r="1" gradientUnits="userSpaceOnUse" gradientTransform="translate(721.509 -108) rotate(90) scale(486.111 522.204)">
<stop stop-color="#3CFFF2"/>
<stop offset="0.848039" stop-color="#FFD900"/>
</radialGradient>
<radialGradient id="paint44_radial_151_1037" cx="0" cy="0" r="1" gradientUnits="userSpaceOnUse" gradientTransform="translate(721.509 -108) rotate(90) scale(486.111 522.204)">
<stop stop-color="#3CFFF2"/>
<stop offset="0.848039" stop-color="#FFD900"/>
</radialGradient>
<radialGradient id="paint45_radial_151_1037" cx="0" cy="0" r="1" gradientUnits="userSpaceOnUse" gradientTransform="translate(721.509 -108) rotate(90) scale(486.111 522.204)">
<stop stop-color="#3CFFF2"/>
<stop offset="0.848039" stop-color="#FFD900"/>
</radialGradient>
<radialGradient id="paint46_radial_151_1037" cx="0" cy="0" r="1" gradientUnits="userSpaceOnUse" gradientTransform="translate(721.509 -108) rotate(90) scale(486.111 522.204)">
<stop stop-color="#3CFFF2"/>
<stop offset="0.848039" stop-color="#FFD900"/>
</radialGradient>
<radialGradient id="paint47_radial_151_1037" cx="0" cy="0" r="1" gradientUnits="userSpaceOnUse" gradientTransform="translate(721.509 -108) rotate(90) scale(486.111 522.204)">
<stop stop-color="#3CFFF2"/>
<stop offset="0.848039" stop-color="#FFD900"/>
</radialGradient>
<radialGradient id="paint48_radial_151_1037" cx="0" cy="0" r="1" gradientUnits="userSpaceOnUse" gradientTransform="translate(721.509 -108) rotate(90) scale(486.111 522.204)">
<stop stop-color="#3CFFF2"/>
<stop offset="0.848039" stop-color="#FFD900"/>
</radialGradient>
<radialGradient id="paint49_radial_151_1037" cx="0" cy="0" r="1" gradientUnits="userSpaceOnUse" gradientTransform="translate(721.509 -108) rotate(90) scale(486.111 522.204)">
<stop stop-color="#3CFFF2"/>
<stop offset="0.848039" stop-color="#FFD900"/>
</radialGradient>
<radialGradient id="paint50_radial_151_1037" cx="0" cy="0" r="1" gradientUnits="userSpaceOnUse" gradientTransform="translate(721.509 -108) rotate(90) scale(486.111 522.204)">
<stop stop-color="#3CFFF2"/>
<stop offset="0.848039" stop-color="#FFD900"/>
</radialGradient>
<radialGradient id="paint51_radial_151_1037" cx="0" cy="0" r="1" gradientUnits="userSpaceOnUse" gradientTransform="translate(721.509 -108) rotate(90) scale(486.111 522.204)">
<stop stop-color="#3CFFF2"/>
<stop offset="0.848039" stop-color="#FFD900"/>
</radialGradient>
<radialGradient id="paint52_radial_151_1037" cx="0" cy="0" r="1" gradientUnits="userSpaceOnUse" gradientTransform="translate(721.509 -108) rotate(90) scale(486.111 522.204)">
<stop stop-color="#3CFFF2"/>
<stop offset="0.848039" stop-color="#FFD900"/>
</radialGradient>
<radialGradient id="paint53_radial_151_1037" cx="0" cy="0" r="1" gradientUnits="userSpaceOnUse" gradientTransform="translate(721.509 -108) rotate(90) scale(486.111 522.204)">
<stop stop-color="#3CFFF2"/>
<stop offset="0.848039" stop-color="#FFD900"/>
</radialGradient>
<radialGradient id="paint54_radial_151_1037" cx="0" cy="0" r="1" gradientUnits="userSpaceOnUse" gradientTransform="translate(721.509 -108) rotate(90) scale(486.111 522.204)">
<stop stop-color="#3CFFF2"/>
<stop offset="0.848039" stop-color="#FFD900"/>
</radialGradient>
</defs>
</svg>
