<svg width="392" height="82" viewBox="0 0 392 82" fill="none" xmlns="http://www.w3.org/2000/svg">
<path d="M16.2783 63.64L0.91825 48.28L31.6383 17.56L46.9983 32.92L62.3583 17.56L93.0783 48.28L77.7183 63.64L62.3583 48.28L46.9983 63.64L31.6383 48.28L16.2783 63.64Z" fill="#CEFF1A"/>
<path d="M114.096 64V19.2H123.632L137.968 54.464L152.048 19.2H161.392V64H154.288V31.04L140.848 64H134.64L121.2 31.04V64H114.096ZM183.164 64.384C172.86 64.384 166.396 57.728 166.396 47.68C166.396 37.568 172.86 30.848 182.524 30.848C191.996 30.848 198.332 36.864 198.524 46.464C198.524 47.296 198.46 48.192 198.332 49.088H173.628V49.536C173.82 55.104 177.34 58.752 182.78 58.752C187.004 58.752 190.076 56.64 191.036 52.992H197.948C196.796 59.456 191.292 64.384 183.164 64.384ZM173.884 44.032H191.356C190.78 39.168 187.388 36.416 182.588 36.416C178.172 36.416 174.396 39.36 173.884 44.032ZM204.95 55.104V37.312H199.254V31.232H204.95V22.08H211.926V31.232H219.926V37.312H211.926V54.4C211.926 56.96 212.822 57.92 215.446 57.92H220.31V64H213.91C207.638 64 204.95 61.056 204.95 55.104ZM253.004 57.984H254.412V64H250.764C246.284 64 244.748 62.016 244.748 58.752C242.572 62.08 239.244 64.384 233.932 64.384C226.764 64.384 221.772 60.864 221.772 54.784C221.772 48.064 226.636 44.288 235.788 44.288H244.044V42.304C244.044 38.656 241.42 36.416 236.876 36.416C232.78 36.416 230.028 38.336 229.516 41.216H222.732C223.436 34.816 228.94 30.848 237.196 30.848C245.9 30.848 250.892 35.008 250.892 42.752V55.872C250.892 57.536 251.596 57.984 253.004 57.984ZM244.044 50.56V49.408H235.468C231.18 49.408 228.812 51.008 228.812 54.336C228.812 57.088 231.116 59.008 234.892 59.008C240.652 59.008 243.98 55.616 244.044 50.56ZM272.696 64V19.2H290.36C299.704 19.2 305.848 24.768 305.848 33.472C305.848 42.112 299.704 47.744 290.36 47.744H280.056V64H272.696ZM289.784 25.6H280.056V41.344H289.72C294.968 41.344 298.36 38.272 298.36 33.472C298.36 28.608 295.032 25.6 289.784 25.6ZM323.45 64.384C313.466 64.384 306.746 57.664 306.746 47.616C306.746 37.632 313.466 30.848 323.45 30.848C333.434 30.848 340.154 37.632 340.154 47.616C340.154 57.664 333.434 64.384 323.45 64.384ZM323.45 58.496C329.274 58.496 333.114 53.952 333.114 47.616C333.114 41.28 329.274 36.736 323.45 36.736C317.626 36.736 313.85 41.28 313.85 47.616C313.85 53.952 317.626 58.496 323.45 58.496ZM359.92 64.384C349.936 64.384 343.216 57.664 343.216 47.616C343.216 37.632 349.936 30.848 359.92 30.848C369.904 30.848 376.624 37.632 376.624 47.616C376.624 57.664 369.904 64.384 359.92 64.384ZM359.92 58.496C365.744 58.496 369.584 53.952 369.584 47.616C369.584 41.28 365.744 36.736 359.92 36.736C354.096 36.736 350.32 41.28 350.32 47.616C350.32 53.952 354.096 58.496 359.92 58.496ZM380.902 64V19.2H387.814V64H380.902Z" fill="#CEFF1A"/>
</svg>
