<svg width="57" height="16" viewBox="0 0 57 16" fill="none" xmlns="http://www.w3.org/2000/svg">
<path d="M5.1816 15.1313L0 0.872875H2.3793L6.38447 12.1344L10.3764 0.872875H12.7689L7.58734 15.1313H5.1816Z" fill="white"/>
<path d="M20.8297 15.5274C19.4285 15.5274 18.2036 15.2193 17.155 14.6032C16.1151 13.9783 15.3044 13.1114 14.7228 12.0024C14.1412 10.8846 13.8504 9.58197 13.8504 8.09451C13.8504 6.53664 14.1368 5.19001 14.7096 4.05462C15.2824 2.91042 16.0799 2.03027 17.1021 1.41417C18.1331 0.78926 19.3404 0.476807 20.7239 0.476807C22.1603 0.476807 23.3808 0.806863 24.3854 1.46698C25.3988 2.12709 26.1567 3.06885 26.659 4.29226C27.1701 5.51567 27.3904 6.97232 27.3199 8.66221H24.9406V7.81726C24.9141 6.06576 24.5572 4.75874 23.8699 3.89619C23.1825 3.02484 22.1603 2.58917 20.8032 2.58917C19.3492 2.58917 18.2433 3.05565 17.4854 3.98861C16.7276 4.92157 16.3486 6.2594 16.3486 8.00209C16.3486 9.68318 16.7276 10.9858 17.4854 11.91C18.2433 12.8341 19.3228 13.2962 20.7239 13.2962C21.6668 13.2962 22.4864 13.0806 23.1825 12.6493C23.8787 12.218 24.4251 11.5975 24.8216 10.7878L27.0819 11.5667C26.5268 12.8253 25.6896 13.8023 24.5705 14.4976C23.4601 15.1841 22.2132 15.5274 20.8297 15.5274ZM15.5555 8.66221V6.77428H26.1038V8.66221H15.5555Z" fill="white"/>
<path d="M34.0627 15.5274C32.9964 15.5274 32.102 15.3337 31.3793 14.9465C30.6656 14.5504 30.1236 14.0311 29.7535 13.3886C29.3922 12.7461 29.2115 12.042 29.2115 11.2763C29.2115 10.5281 29.3525 9.88122 29.6345 9.33552C29.9253 8.78103 30.3307 8.32335 30.8506 7.96249C31.3705 7.59282 31.9918 7.30237 32.7144 7.09114C33.3929 6.90631 34.1508 6.74788 34.988 6.61586C35.8339 6.47503 36.6887 6.34741 37.5523 6.23299C38.4159 6.11857 39.2222 6.00855 39.9713 5.90294L39.1253 6.39142C39.1517 5.124 38.8962 4.18664 38.3586 3.57934C37.8299 2.97203 36.9134 2.66838 35.6092 2.66838C34.7456 2.66838 33.9878 2.86641 33.3357 3.26248C32.6924 3.64975 32.2385 4.28346 31.9742 5.16361L29.7403 4.49029C30.084 3.24048 30.7493 2.25911 31.7362 1.54619C32.7232 0.833268 34.023 0.476807 35.6357 0.476807C36.9311 0.476807 38.0414 0.710047 38.9667 1.17653C39.9008 1.63421 40.5705 2.32952 40.9759 3.26248C41.1786 3.70256 41.3063 4.18224 41.3592 4.70153C41.4121 5.21202 41.4385 5.74891 41.4385 6.31221V15.1313H39.35V11.7119L39.8391 12.0288C39.3016 13.1818 38.5481 14.0531 37.5788 14.6428C36.6182 15.2325 35.4462 15.5274 34.0627 15.5274ZM34.4196 13.5602C35.2655 13.5602 35.997 13.4106 36.6138 13.1114C37.2395 12.8033 37.7418 12.4028 38.1207 11.91C38.4996 11.4083 38.7464 10.8626 38.8609 10.2729C38.9931 9.83281 39.0636 9.34433 39.0724 8.80743C39.0901 8.26174 39.0989 7.84367 39.0989 7.55322L39.9184 7.90968C39.1517 8.0153 38.3983 8.11651 37.6581 8.21333C36.9178 8.31015 36.2173 8.41577 35.5564 8.53019C34.8954 8.6358 34.3006 8.76343 33.7719 8.91305C33.3841 9.03627 33.0184 9.1947 32.6747 9.38833C32.3399 9.58197 32.0667 9.83281 31.8552 10.1409C31.6525 10.4401 31.5512 10.8142 31.5512 11.2631C31.5512 11.6503 31.6481 12.02 31.842 12.372C32.0447 12.7241 32.3531 13.0102 32.7673 13.2302C33.1903 13.4502 33.741 13.5602 34.4196 13.5602Z" fill="white"/>
<path d="M43.2891 15.1313L48.7483 7.92288L43.4081 0.872875H46.2104L50.123 6.10097L53.996 0.872875H56.7983L51.458 7.92288L56.9304 15.1313H54.1149L50.123 9.74479L46.1046 15.1313H43.2891Z" fill="white"/>
</svg>
